<?xml version="1.0" encoding="utf-8"?>
<svg x="0pt" y="0pt" width="512pt" height="512pt" viewBox="0 0 512 512" xmlns="http://www.w3.org/2000/svg" xmlns:xlink="http://www.w3.org/1999/xlink">
  <!--Generated by AMDN-->
  <g id="Colored">
    <g id="favicon">
      <g id="dark-green-bg">
        <path id="Path" style="fill:#088357;fill-opacity:1;fill-rule:nonzero;opacity:1;stroke:none;" d="M488.033,0.0335388 C490.155,0.0335388,492.19,0.876539,493.69,2.37654 C495.557,4.24354,497.424,6.11054,499.29,7.97754 C499.29,7.97754,509.69,18.3765,509.69,18.3765 C511.19,19.8765,512.033,21.9115,512.033,24.0335 C512.033,24.0335,512.033,488.034,512.033,488.034 C512.033,490.156,511.19,492.191,509.69,493.691 C507.823,495.558,505.957,497.425,504.09,499.291 C501.733,501.647,499.378,504.004,497.022,506.36 C497.022,506.36,493.69,509.691,493.69,509.691 C492.19,511.191,490.155,512.034,488.033,512.034 C488.033,512.034,24.0335,512.034,24.0335,512.034 C21.9115,512.034,19.8765,511.191,18.3765,509.691 C16.5095,507.824,14.6425,505.957,12.7765,504.09 C12.7765,504.09,2.37648,493.691,2.37648,493.691 C0.876478,492.191,0.0334778,490.156,0.0334778,488.034 C0.0334778,488.034,0.0334778,24.0335,0.0334778,24.0335 C0.0334778,21.9115,0.876478,19.8765,2.37648,18.3765 C4.24348,16.5095,6.11048,14.6425,7.97748,12.7765 C10.3335,10.4205,12.6895,8.06354,15.0455,5.70754 C15.0455,5.70754,18.3765,2.37654,18.3765,2.37654 C19.8765,0.876539,21.9115,0.0335388,24.0335,0.0335388 C24.0335,0.0335388,488.033,0.0335388,488.033,0.0335388 z"/>
        <path id="dark-green-bg" style="fill:#404040;fill-opacity:1;fill-rule:nonzero;opacity:1;stroke:none;" d="M488.033,0.0335388 C490.155,0.0335388,492.19,0.876539,493.69,2.37654 C495.557,4.24354,497.424,6.11054,499.29,7.97754 C499.29,7.97754,509.69,18.3765,509.69,18.3765 C511.19,19.8765,512.033,21.9115,512.033,24.0335 C512.033,24.0335,512.033,488.034,512.033,488.034 C512.033,490.156,511.19,492.191,509.69,493.691 C507.823,495.558,505.957,497.425,504.09,499.291 C501.733,501.647,499.378,504.004,497.022,506.36 C497.022,506.36,493.69,509.691,493.69,509.691 C492.19,511.191,490.155,512.034,488.033,512.034 C488.033,512.034,24.0335,512.034,24.0335,512.034 C21.9115,512.034,19.8765,511.191,18.3765,509.691 C16.5095,507.824,14.6425,505.957,12.7765,504.09 C12.7765,504.09,2.37648,493.691,2.37648,493.691 C0.876478,492.191,0.0334778,490.156,0.0334778,488.034 C0.0334778,488.034,0.0334778,24.0335,0.0334778,24.0335 C0.0334778,21.9115,0.876478,19.8765,2.37648,18.3765 C4.24348,16.5095,6.11048,14.6425,7.97748,12.7765 C10.3335,10.4205,12.6895,8.06354,15.0455,5.70754 C15.0455,5.70754,18.3765,2.37654,18.3765,2.37654 C19.8765,0.876539,21.9115,0.0335388,24.0335,0.0335388 C24.0335,0.0335388,488.033,0.0335388,488.033,0.0335388 z"/>
      </g>
      <path id="n-hollow" style="fill:#3da8f4;fill-opacity:1;fill-rule:nonzero;opacity:1;stroke:none;" d="M294.476,431.033 C301.054,437.611,311.72,437.613,318.299,431.034 C318.299,431.034,370.457,378.923,370.457,378.923 C370.457,378.923,441.018,308.652,441.018,308.652 C441.018,308.652,449.294,300.389,449.294,300.389 C449.294,300.389,453.034,296.649,453.034,296.649 C459.613,290.07,459.612,279.403,453.033,272.825 C446.454,266.246,435.789,266.246,429.21,272.825 C429.21,272.825,294.475,407.21,294.475,407.21 C287.896,413.789,287.896,424.454,294.476,431.033 z M300.133,425.376 C296.739,421.983,296.678,416.521,299.943,413.061 C299.943,413.061,300.125,412.874,300.125,412.874 C300.125,412.874,434.866,278.482,434.866,278.482 C438.321,275.027,443.921,275.027,447.377,278.482 C450.769,281.875,450.83,287.338,447.557,290.807 C447.557,290.807,447.375,290.994,447.375,290.994 C447.375,290.994,441.693,296.675,441.693,296.675 C441.693,296.675,432.127,306.22,432.127,306.22 C432.127,306.22,351.068,386.974,351.068,386.974 C351.068,386.974,324.763,413.259,324.763,413.259 C324.763,413.259,312.642,425.377,312.642,425.377 C309.188,428.831,303.587,428.831,300.133,425.376 z"/>
      <path id="i-hollow" style="fill:#8cc63f;fill-opacity:1;fill-rule:nonzero;opacity:1;stroke:none;" d="M256.033,435.611 C265.336,435.611,272.879,428.07,272.879,418.766 C272.879,418.766,272.879,284,272.879,284 C272.879,274.695,265.336,267.153,256.033,267.153 C246.728,267.153,239.187,274.695,239.187,284 C239.187,284,239.187,418.766,239.187,418.766 C239.187,428.07,246.728,435.611,256.033,435.611 z M256.033,427.611 C251.234,427.611,247.329,423.791,247.191,419.026 C247.191,419.026,247.187,418.766,247.187,418.766 C247.187,418.766,247.187,284,247.187,284 C247.187,279.113,251.147,275.154,256.033,275.154 C260.831,275.154,264.738,278.974,264.876,283.741 C264.876,283.741,264.879,284.002,264.879,284.002 C264.879,284.002,264.884,302.675,264.884,302.675 C264.884,302.675,264.88,363.064,264.88,363.064 C264.88,363.064,264.879,418.766,264.879,418.766 C264.879,423.65,260.919,427.611,256.033,427.611 z"/>
      <path id="x-hollow" style="fill:#ff1c24;fill-opacity:1;fill-rule:nonzero;opacity:1;stroke:none;" d="M218.033,431.034 C224.612,424.455,224.612,413.789,218.033,407.21 C218.033,407.21,162.033,351.433,162.033,351.433 C162.033,351.433,218.033,295.649,218.033,295.649 C224.612,289.07,224.612,278.403,218.033,271.825 C211.454,265.246,200.789,265.246,194.21,271.825 C194.21,271.825,138.209,327.682,138.209,327.682 C138.209,327.682,83.2989,272.825,83.2989,272.825 C76.72,266.246,66.054,266.247,59.4758,272.826 C52.9839,279.317,52.8973,289.786,59.2154,296.383 C59.2154,296.383,59.4751,296.649,59.4751,296.649 C59.4751,296.649,114.398,351.43,114.398,351.43 C114.398,351.43,59.4751,406.21,59.4751,406.21 C52.8962,412.789,52.8962,423.454,59.4758,430.033 C66.054,436.611,76.72,436.613,83.2989,430.034 C83.2989,430.034,138.209,375.177,138.209,375.177 C138.209,375.177,194.21,431.034,194.21,431.034 C200.789,437.612,211.454,437.613,218.033,431.034 z M212.377,425.377 C208.989,428.764,203.54,428.83,200.065,425.569 C200.065,425.569,199.859,425.369,199.859,425.369 C199.859,425.369,138.205,363.873,138.205,363.873 C138.205,363.873,77.6421,424.377,77.6421,424.377 C74.1879,427.831,68.5872,427.831,65.1326,424.376 C61.745,420.989,61.6785,415.54,64.9257,412.08 C64.9257,412.08,65.1246,411.874,65.1246,411.874 C65.1246,411.874,125.726,351.43,125.726,351.43 C125.726,351.43,65.1927,291.053,65.1927,291.053 C65.1927,291.053,64.9932,290.85,64.9932,290.85 C61.673,287.383,61.729,281.886,65.1326,278.482 C68.5195,275.096,73.9691,275.029,77.439,278.285 C77.439,278.285,77.6448,278.484,77.6448,278.484 C77.6448,278.484,138.205,338.986,138.205,338.986 C138.205,338.986,199.866,277.482,199.866,277.482 C203.322,274.027,208.921,274.027,212.377,277.482 C215.763,280.869,215.83,286.319,212.586,289.776 C212.586,289.776,212.388,289.981,212.388,289.981 C212.388,289.981,150.697,351.433,150.697,351.433 C150.697,351.433,212.377,412.867,212.377,412.867 C215.763,416.253,215.83,421.704,212.576,425.171 C212.576,425.171,212.377,425.377,212.377,425.377 z"/>
      <path id="n" style="fill:#3da8f4;fill-opacity:1;fill-rule:nonzero;opacity:1;stroke:none;" d="M294.476,84.8255 C301.054,78.2473,311.72,78.2459,318.299,84.8248 C413.271,179.797,420.956,187.114,453.033,219.21 C459.612,225.789,459.612,236.455,453.033,243.034 C446.454,249.613,435.789,249.612,429.21,243.034 C429.21,243.034,294.475,108.649,294.475,108.649 C287.896,102.07,287.896,91.4052,294.476,84.8255 z"/>
      <path id="i" style="fill:#8cc63f;fill-opacity:1;fill-rule:nonzero;opacity:1;stroke:none;" d="M256.033,79.1535 C265.336,79.1535,272.879,86.6945,272.879,95.9985 C272.879,230.31,272.892,185.388,272.879,230.765 C272.879,240.069,265.336,247.611,256.033,247.611 C246.728,247.611,239.187,240.069,239.187,230.765 C239.187,230.765,239.187,95.9985,239.187,95.9985 C239.187,86.6945,246.728,79.1535,256.033,79.1535 z"/>
      <path id="x" style="fill:#ff1c24;fill-opacity:1;fill-rule:nonzero;opacity:1;stroke:none;" d="M194.21,83.8252 C200.789,77.2463,211.454,77.2456,218.033,83.8252 C224.612,90.4034,224.612,101.07,218.033,107.649 C218.033,107.649,162.033,163.426,162.033,163.426 C162.033,163.426,218.033,219.21,218.033,219.21 C224.612,225.789,224.612,236.455,218.033,243.034 C211.454,249.613,200.789,249.612,194.21,243.034 C194.21,243.034,138.209,187.177,138.209,187.177 C138.209,187.177,83.2989,242.034,83.2989,242.034 C76.72,248.613,66.054,248.611,59.4758,242.033 C52.9839,235.541,52.8973,225.073,59.2154,218.475 C59.2154,218.475,59.4751,218.21,59.4751,218.21 C59.4751,218.21,114.398,163.429,114.398,163.429 C114.398,163.429,59.4751,108.649,59.4751,108.649 C52.8962,102.07,52.8962,91.4052,59.4758,84.8255 C66.054,78.2473,76.72,78.2459,83.2989,84.8248 C83.2989,84.8248,138.209,139.682,138.209,139.682 C138.209,139.682,194.21,83.8252,194.21,83.8252 z"/>
    </g>
  </g>
</svg>
