<?xml version="1.0" encoding="UTF-8"?>
<!DOCTYPE svg PUBLIC "-//W3C//DTD SVG 1.1//EN" "http://www.w3.org/Graphics/SVG/1.1/DTD/svg11.dtd">
<svg version="1.1" xmlns="http://www.w3.org/2000/svg" xmlns:xlink="http://www.w3.org/1999/xlink" x="0" y="0" width="512" height="512" viewBox="0, 0, 512, 512">
  <g id="dark-green-bg">
    <path d="M488,0 C490.122,0 492.157,0.843 493.657,2.343 C495.524,4.21 497.391,6.077 499.257,7.944 L509.657,18.343 C511.157,19.843 512,21.878 512,24 L512,488 C512,490.122 511.157,492.157 509.657,493.657 C507.79,495.524 505.923,497.391 504.056,499.257 C501.7,501.613 499.344,503.97 496.988,506.326 L493.657,509.657 C492.157,511.157 490.122,512 488,512 L24,512 C21.878,512 19.843,511.157 18.343,509.657 C16.476,507.79 14.609,505.923 12.743,504.056 L2.343,493.657 C0.843,492.157 0,490.122 0,488 L0,24 C0,21.878 0.843,19.843 2.343,18.343 C4.21,16.476 6.077,14.609 7.944,12.743 C10.3,10.387 12.656,8.03 15.012,5.674 L18.343,2.343 C19.843,0.843 21.878,0 24,0 L488,0 z" fill="#098358"/>
  </g>
  <g id="simplified-logo">
    <path d="M73.914,79.428 C81.018,82.325 78.278,80.516 82.609,84.053 L138.079,139.525 L187.76,89.843 C192.498,85.106 192.498,85.106 193.55,84.053 C197.701,80.036 200.763,79.606 206.256,79.417 L208.68,79.428 C215.784,82.325 213.044,80.516 217.375,84.053 C223.953,90.632 223.953,101.299 217.375,107.877 C216.321,108.929 216.321,108.929 211.584,113.667 L161.904,163.348 L217.375,218.819 C223.953,225.398 223.953,236.065 217.375,242.643 C210.795,249.222 200.128,249.222 193.55,242.643 L138.079,187.172 L112.221,213.028 L88.399,236.852 C83.661,241.59 83.661,241.59 82.609,242.643 C76.029,249.222 65.362,249.222 58.784,242.643 C52.206,236.065 52.206,225.398 58.784,218.819 C59.837,217.766 59.837,217.766 64.575,213.028 L114.255,163.348 L58.784,107.877 C52.206,101.299 52.206,90.632 58.784,84.053 C62.935,80.036 65.995,79.606 71.49,79.417 L73.914,79.428 z" fill="#EDF3DD"/>
    <path d="M256,79.12 C265.303,79.12 272.846,86.661 272.846,95.965 L272.846,230.731 C272.846,240.035 265.303,247.577 256,247.577 C246.695,247.577 239.154,240.035 239.154,230.731 L239.154,95.965 C239.154,86.661 246.695,79.12 256,79.12 z" fill="#EDF3DD"/>
    <path d="M307.331,79.417 L309.755,79.428 C316.859,82.325 314.119,80.516 318.448,84.052 C319.502,85.106 319.502,85.106 324.24,89.843 L447.423,213.028 C452.162,217.766 452.162,217.766 453.216,218.819 C459.794,225.398 459.794,236.065 453.216,242.643 C446.636,249.222 435.969,249.222 429.391,242.643 L294.625,107.877 C288.046,101.299 288.046,90.632 294.625,84.052 C298.774,80.036 301.836,79.606 307.331,79.417 z" fill="#EDF3DD"/>
    <path d="M256,79.12 C265.303,79.12 272.846,86.661 272.846,95.965 C272.846,230.276 272.859,185.354 272.846,230.731 C272.846,240.035 265.303,247.577 256,247.577 C246.695,247.577 239.154,240.035 239.154,230.731 L239.154,95.965 C239.154,86.661 246.695,79.12 256,79.12 z" fill="#EDF3DD"/>
    <path d="M307.331,79.417 L309.755,79.428 C316.859,82.325 314.119,80.516 318.448,84.052 C319.502,85.106 319.502,85.106 324.24,89.843 L447.423,213.028 C452.162,217.766 452.162,217.766 453.216,218.819 C459.794,225.398 459.794,236.065 453.216,242.643 C446.636,249.222 435.969,249.222 429.391,242.643 L294.625,107.877 C288.046,101.299 288.046,90.632 294.625,84.052 C298.774,80.036 301.836,79.606 307.331,79.417 z" fill="#EDF3DD"/>
    <path d="M206.256,264.722 L208.68,264.73 C215.784,267.627 213.044,265.82 217.375,269.357 C223.953,275.935 223.953,286.601 217.375,293.179 C216.656,293.898 215.937,294.617 215.22,295.334 L182.176,328.165 L181.35,328.99 L163.255,347.125 L161.818,348.566 L217.375,404.123 C223.953,410.701 223.953,421.367 217.375,427.945 C210.795,434.525 200.128,434.525 193.55,427.945 C192.498,426.893 192.498,426.893 187.76,422.155 L138.021,372.416 L115.727,394.758 C112.73,397.762 109.734,400.763 106.739,403.765 L82.609,427.945 C76.029,434.525 65.362,434.525 58.784,427.945 C52.206,421.367 52.206,410.701 58.784,404.123 L114.255,348.65 L64.575,298.97 C62.763,297.159 60.952,295.347 59.14,293.537 L58.784,293.179 C52.206,286.601 52.206,275.935 58.784,269.357 C62.935,265.339 65.995,264.909 71.49,264.722 L73.914,264.73 C81.018,267.627 78.278,265.82 82.609,269.357 L138.079,324.828 C156.576,306.342 175.06,287.846 193.55,269.357 C197.701,265.339 200.763,264.909 206.256,264.722 z M206.409,273.145 C203.441,273.162 201.703,273.27 199.506,275.312 C194.338,280.481 190.203,284.617 180.9,293.922 L180.898,293.922 C162.469,312.356 154.277,320.549 144.033,330.785 C140.744,334.072 135.413,334.072 132.124,330.783 L76.94,275.601 C76.421,275.175 75.905,274.743 75.388,274.315 C74.344,273.951 73.312,273.555 72.286,273.148 L71.643,273.145 C68.675,273.162 66.937,273.27 64.74,275.312 C61.451,278.602 61.451,283.935 64.742,287.225 L65.099,287.583 L65.098,287.581 C67.157,289.641 68.88,291.364 70.531,293.014 L120.211,342.695 C123.502,345.985 123.502,351.317 120.211,354.608 L64.74,410.079 C61.451,413.368 61.451,418.701 64.74,421.99 C68.029,425.28 73.362,425.28 76.646,421.997 L100.776,397.817 C101.971,396.618 102.927,395.661 105.08,393.503 C107.421,391.156 108.463,390.113 109.765,388.809 L132.059,366.467 C135.346,363.171 140.684,363.168 143.977,366.46 L193.716,416.199 C198.201,420.685 196.559,419.041 198.645,421.128 C199.329,421.813 199.042,421.526 199.506,421.99 C202.795,425.28 208.128,425.28 211.419,421.99 C214.708,418.701 214.708,413.368 211.417,410.079 L155.862,354.522 C152.575,351.236 152.571,345.908 155.855,342.617 L157.292,341.177 L175.395,323.035 L176.239,322.19 L209.265,289.378 C210.341,288.3 210.341,288.3 211.419,287.224 C214.689,283.531 214.62,279.232 211.544,275.467 C211.08,275.086 210.618,274.699 210.154,274.315 C209.112,273.951 208.078,273.555 207.052,273.148 L206.409,273.145 z" fill="#EDF3DD"/>
    <path d="M256,264.423 C265.303,264.423 272.846,271.965 272.846,281.268 L272.846,416.034 C272.846,425.339 265.303,432.88 256,432.88 C246.695,432.88 239.154,425.339 239.154,416.034 L239.154,281.268 C239.154,271.965 246.695,264.423 256,264.423 z M256,272.845 C251.348,272.845 247.577,276.617 247.577,281.268 L247.577,416.034 C247.577,420.687 251.348,424.457 256,424.457 C260.652,424.457 264.423,420.687 264.423,416.034 L264.423,281.268 C264.423,276.617 260.652,272.845 256,272.845 z" fill="#EDF3DD"/>
    <path d="M442.097,264.722 L444.521,264.73 C451.625,267.627 448.885,265.82 453.216,269.357 C459.794,275.935 459.794,286.601 453.216,293.179 C452.162,294.233 452.162,294.233 447.423,298.972 C404.266,341.796 361.445,384.958 318.448,427.945 C311.87,434.525 301.203,434.525 294.625,427.945 C288.046,421.367 288.046,410.701 294.625,404.123 C295.342,403.404 296.061,402.687 296.78,401.969 C340.728,357.508 385.192,313.565 429.391,269.357 C433.54,265.339 436.602,264.909 442.097,264.722 z M442.248,273.145 C439.283,273.162 437.544,273.27 435.347,275.312 C435.077,275.582 435.077,275.582 434.843,275.816 L434.843,275.816 C434.185,276.475 433.786,276.875 429.557,281.103 L306.372,404.288 C302.144,408.517 301.743,408.916 301.085,409.575 L301.085,409.575 C300.851,409.809 300.851,409.809 300.581,410.079 C297.292,413.368 297.292,418.701 300.581,421.99 C303.87,425.28 309.203,425.28 312.494,421.99 C312.764,421.72 312.764,421.72 312.998,421.486 C314.76,419.724 316.522,417.961 318.283,416.199 L441.468,293.014 L442.883,291.601 L447.258,287.224 C450.53,283.531 450.461,279.232 447.385,275.467 C446.92,275.086 446.459,274.699 445.995,274.315 C444.951,273.951 443.919,273.555 442.893,273.148 L442.248,273.145 z" fill="#EDF3DD"/>
    <path d="M256,264.423 C265.303,264.423 272.846,271.965 272.846,281.268 L272.846,416.034 C272.846,425.339 265.303,432.88 256,432.88 C246.695,432.88 239.154,425.339 239.154,416.034 L239.154,281.268 C239.154,271.965 246.695,264.423 256,264.423 z M256,272.845 C251.348,272.845 247.577,276.617 247.577,281.268 L247.577,416.034 C247.577,420.687 251.348,424.457 256,424.457 C260.652,424.457 264.423,420.687 264.423,416.034 L264.423,281.268 C264.423,276.617 260.652,272.845 256,272.845 z" fill="#EDF3DD"/>
    <path d="M442.097,264.722 L444.521,264.73 C451.625,267.627 448.885,265.82 453.216,269.357 C459.794,275.935 459.794,286.601 453.216,293.179 C452.162,294.233 452.162,294.233 447.423,298.972 C404.266,341.796 361.445,384.958 318.448,427.945 C311.87,434.525 301.203,434.525 294.625,427.945 C288.046,421.367 288.046,410.701 294.625,404.123 C295.342,403.404 296.061,402.687 296.78,401.969 C340.728,357.508 385.192,313.565 429.391,269.357 C433.54,265.339 436.602,264.909 442.097,264.722 z M442.248,273.145 C439.283,273.162 437.544,273.27 435.347,275.312 C435.077,275.582 435.077,275.582 434.843,275.816 L434.843,275.816 C434.185,276.475 433.786,276.875 429.557,281.103 L306.372,404.288 C302.144,408.517 301.743,408.916 301.085,409.575 L301.085,409.575 C300.851,409.809 300.851,409.809 300.581,410.079 C297.292,413.368 297.292,418.701 300.581,421.99 C303.87,425.28 309.203,425.28 312.494,421.99 C312.764,421.72 312.764,421.72 312.998,421.486 C314.76,419.724 316.522,417.961 318.283,416.199 L441.468,293.014 L442.883,291.601 L447.258,287.224 C450.53,283.531 450.461,279.232 447.385,275.467 C446.92,275.086 446.459,274.699 445.995,274.315 C444.951,273.951 443.919,273.555 442.893,273.148 L442.248,273.145 z" fill="#EDF3DD"/>
  </g>
</svg>
