<?xml version="1.0" encoding="UTF-8"?>
<svg width="512px" height="512px" viewBox="0 0 512 512" version="1.1" xmlns="http://www.w3.org/2000/svg" xmlns:xlink="http://www.w3.org/1999/xlink">
    <title>xinjs</title>
    <g id="xinjs" stroke="none" stroke-width="1" fill="none" fill-rule="evenodd">
        <g id="favicon" fill-rule="nonzero">
            <g id="dark-green-bg" fill="#098358">
                <path d="M488,0 C490.122,0 492.157,0.843 493.657,2.343 C495.524,4.21 497.391,6.077 499.257,7.944 L509.657,18.343 C511.157,19.843 512,21.878 512,24 L512,488 C512,490.122 511.157,492.157 509.657,493.657 C507.79,495.524 505.923,497.391 504.056,499.257 C501.7,501.613 499.344,503.97 496.988,506.326 L493.657,509.657 C492.157,511.157 490.122,512 488,512 L24,512 C21.878,512 19.843,511.157 18.343,509.657 C16.476,507.79 14.609,505.923 12.743,504.056 L2.343,493.657 C0.843,492.157 0,490.122 0,488 L0,24 C0,21.878 0.843,19.843 2.343,18.343 C4.21,16.476 6.077,14.609 7.944,12.743 C10.3,10.387 12.656,8.03 15.012,5.674 L18.343,2.343 C19.843,0.843 21.878,0 24,0 L488,0 Z" id="Path"></path>
            </g>
            <path d="M373.597446,239.902246 C382.900446,239.902246 390.443446,247.443246 390.443446,256.747246 L390.476951,330.476886 L390.682201,430.060228 L390.691001,441.754928 L390.691001,447.04342 C390.691001,456.34742 383.147719,463.88942 373.844719,463.88942 C364.539719,463.88942 356.998719,456.34742 356.998719,447.04342 L356.751446,256.747246 C356.751446,247.443246 364.292446,239.902246 373.597446,239.902246 Z M373.597446,247.902246 C368.798066,247.902246 364.893147,251.721306 364.75521,256.476562 L364.751439,256.736851 L364.998719,447.04342 C364.998719,451.92956 368.958416,455.88942 373.844719,455.88942 C378.642625,455.88942 382.548965,452.068913 382.686947,447.302059 L382.690719,447.041128 L382.690132,439.00641 L382.675156,425.492418 L382.45999,311.073723 L382.444905,273.886985 L382.443446,256.747246 C382.443446,251.862281 378.482924,247.902246 373.597446,247.902246 Z" id="n-hollow" fill="#EDF3DD" transform="translate(373.721224, 351.895833) scale(1, -1) rotate(-45.000000) translate(-373.721224, -351.895833) "></path>
            <path d="M256,267.12 C265.303,267.12 272.846,274.661 272.846,283.965 L272.846,418.731 C272.846,428.035 265.303,435.577 256,435.577 C246.695,435.577 239.154,428.035 239.154,418.731 L239.154,283.965 C239.154,274.661 246.695,267.12 256,267.12 Z M256,275.12 C251.200621,275.12 247.295701,278.939059 247.15777,283.704164 L247.154,283.965 L247.154,418.731 C247.154,423.617141 251.113697,427.577 256,427.577 C260.797906,427.577 264.704246,423.756494 264.842229,418.989641 L264.846,418.72871 L264.851018,400.055572 L264.846994,339.666513 L264.846,283.965 C264.846,279.080034 260.885478,275.12 256,275.12 Z" id="i-hollow" fill="#EDF3DD" transform="translate(256.000000, 351.348500) scale(1, -1) translate(-256.000000, -351.348500) "></path>
            <path d="M218,271.791666 C224.578214,278.36988 224.578921,289.036586 218,295.615508 L161.999707,351.392555 L218,407.176158 C224.578921,413.75508 224.578214,424.421786 218,431 C211.420371,437.579629 200.75508,437.578921 194.176158,431 L138.175765,375.143376 L83.2654372,430.000374 C76.6865157,436.579295 66.020517,436.577881 59.4423026,429.999667 C52.9504024,423.507767 52.8638437,413.039116 59.1819474,406.441849 L59.4415955,406.176532 L114.364493,351.39521 L59.4415955,296.615134 C52.862674,290.036212 52.862674,279.371628 59.4423026,272.791999 C66.020517,266.213785 76.6865157,266.212371 83.2654372,272.791292 L138.175765,327.64829 L194.176158,271.791666 C200.75508,265.212745 211.420371,265.212037 218,271.791666 Z M212.343146,277.44852 C208.955755,274.06113 203.506818,273.994821 200.031835,277.256115 L199.825737,277.455786 L138.171247,338.951992 L77.6085829,278.448146 C74.1543906,274.993954 68.5537118,274.994299 65.0991569,278.448853 C61.7115325,281.836478 61.6449981,287.28474 64.8922677,290.74568 L65.0910804,290.95092 L125.692895,351.395145 L65.1591975,411.771979 L64.9597243,411.975138 C61.6394953,415.442071 61.6955408,420.939196 65.0991569,424.342813 C68.4859754,427.729631 73.9355813,427.79637 77.4055422,424.540134 L77.6113319,424.340772 L138.171247,363.839674 L199.833013,425.343146 C203.288036,428.798169 208.888008,428.798284 212.343146,425.343146 C215.72973,421.956561 215.796244,416.50628 212.552706,413.048981 L212.354122,412.843968 L150.663669,351.392222 L212.343146,289.958653 C215.729843,286.571956 215.796138,281.121673 212.542357,277.654159 L212.343146,277.44852 Z" id="x-hollow" fill="#EDF3DD" transform="translate(138.720709, 351.395833) scale(1, -1) translate(-138.720709, -351.395833) "></path>
            <path d="M373.597446,51.9022464 C382.900446,51.9022464 390.443446,59.4432464 390.443446,68.7472464 C390.443446,203.058246 390.703719,213.66642 390.690719,259.04342 C390.690719,268.34742 383.147719,275.88942 373.844719,275.88942 C364.539719,275.88942 356.998719,268.34742 356.998719,259.04342 L356.751446,68.7472464 C356.751446,59.4432464 364.292446,51.9022464 373.597446,51.9022464 Z" id="n" fill="#EDF3DD" transform="translate(373.721318, 163.895833) rotate(-45.000000) translate(-373.721318, -163.895833) "></path>
            <path d="M256,79.12 C265.303,79.12 272.846,86.661 272.846,95.965 C272.846,230.276 272.859,185.354 272.846,230.731 C272.846,240.035 265.303,247.577 256,247.577 C246.695,247.577 239.154,240.035 239.154,230.731 L239.154,95.965 C239.154,86.661 246.695,79.12 256,79.12 Z" id="i" fill="#EDF3DD"></path>
            <path d="M194.176158,83.791666 C200.75508,77.2127445 211.420371,77.2120374 218,83.791666 C224.578214,90.3698804 224.578921,101.036586 218,107.615508 L161.999707,163.392555 L218,219.176158 C224.578921,225.75508 224.578214,236.421786 218,243 C211.420371,249.579629 200.75508,249.578921 194.176158,243 L138.175765,187.143376 L83.2654372,242.000374 C76.6865157,248.579295 66.020517,248.577881 59.4423026,241.999667 C52.9504024,235.507767 52.8638437,225.039116 59.1819474,218.441849 L59.4415955,218.176532 L114.364493,163.39521 L59.4415955,108.615134 C52.862674,102.036212 52.862674,91.3716278 59.4423026,84.7919992 C66.020517,78.2137848 76.6865157,78.2123706 83.2654372,84.7912921 L138.175765,139.64829 L194.176158,83.791666 Z" id="x" fill="#EDF3DD"></path>
        </g>
    </g>
</svg>