<?xml version="1.0" encoding="utf-8"?>
<svg x="0pt" y="0pt" width="512pt" height="512pt" viewBox="0 0 512 512" xmlns="http://www.w3.org/2000/svg" xmlns:xlink="http://www.w3.org/1999/xlink">
  <!--Generated by AMDN-->
  <g id="Layer 2">
    <g id="Alr3_Logo_Color">
      <path id="Path 266" style="fill:#404040;fill-opacity:1;fill-rule:nonzero;opacity:1;stroke:none;" d="M487.839,-0.160568 C489.961,-0.160568,491.996,0.682432,493.496,2.18243 C495.363,4.04943,497.23,5.91643,499.096,7.78343 C499.096,7.78343,509.496,18.1824,509.496,18.1824 C510.996,19.6824,511.839,21.7174,511.839,23.8394 C511.839,23.8394,511.839,487.839,511.839,487.839 C511.839,489.961,510.996,491.996,509.496,493.496 C507.629,495.363,505.762,497.23,503.895,499.096 C501.539,501.452,499.183,503.809,496.827,506.165 C496.827,506.165,493.496,509.496,493.496,509.496 C491.996,510.996,489.961,511.839,487.839,511.839 C487.839,511.839,23.8394,511.839,23.8394,511.839 C21.7174,511.839,19.6824,510.996,18.1824,509.496 C16.3154,507.629,14.4484,505.762,12.5824,503.895 C12.5824,503.895,2.1824,493.496,2.1824,493.496 C0.682401,491.996,-0.160599,489.961,-0.160599,487.839 C-0.160599,487.839,-0.160599,23.8394,-0.160599,23.8394 C-0.160599,21.7174,0.682401,19.6824,2.1824,18.1824 C4.0494,16.3154,5.9164,14.4484,7.7834,12.5824 C10.1394,10.2264,12.4954,7.86943,14.8514,5.51343 C14.8514,5.51343,18.1824,2.18243,18.1824,2.18243 C19.6824,0.682432,21.7174,-0.160568,23.8394,-0.160568 C23.8394,-0.160568,487.839,-0.160568,487.839,-0.160568 z"/>
      <path id="Path 267" style="fill:#ff1c24;fill-opacity:1;fill-rule:nonzero;opacity:1;stroke:none;" d="M62.2484,153.638 C66.3804,155.323,64.7864,154.271,67.3054,156.328 C67.3054,156.328,99.5694,188.593,99.5694,188.593 C99.5694,188.593,128.465,159.696,128.465,159.696 C131.221,156.941,131.221,156.941,131.833,156.328 C134.247,153.992,136.028,153.742,139.223,153.632 C139.223,153.632,140.633,153.638,140.633,153.638 C144.765,155.323,143.171,154.271,145.69,156.328 C149.516,160.155,149.516,166.359,145.69,170.185 C145.077,170.797,145.077,170.797,142.322,173.553 C142.322,173.553,113.426,202.449,113.426,202.449 C113.426,202.449,145.69,234.713,145.69,234.713 C149.516,238.54,149.516,244.744,145.69,248.57 C141.863,252.397,135.659,252.397,131.833,248.57 C131.833,248.57,99.5694,216.306,99.5694,216.306 C99.5694,216.306,84.5294,231.345,84.5294,231.345 C84.5294,231.345,70.6734,245.202,70.6734,245.202 C67.9174,247.958,67.9174,247.958,67.3054,248.57 C63.4784,252.397,57.2744,252.397,53.4484,248.57 C49.6224,244.744,49.6224,238.54,53.4484,234.713 C54.0604,234.101,54.0604,234.101,56.8164,231.345 C56.8164,231.345,85.7124,202.449,85.7124,202.449 C85.7124,202.449,53.4484,170.185,53.4484,170.185 C49.6224,166.359,49.6224,160.155,53.4484,156.328 C55.8624,153.992,57.6424,153.742,60.8384,153.632 C60.8384,153.632,62.2484,153.638,62.2484,153.638 z"/>
      <path id="Path 268" style="fill:#088357;fill-opacity:1;fill-rule:nonzero;opacity:1;stroke:none;" d="M168.156,153.459 C173.567,153.459,177.954,157.845,177.954,163.257 C177.954,163.257,177.954,241.642,177.954,241.642 C177.954,247.053,173.567,251.44,168.156,251.44 C162.744,251.44,158.358,247.053,158.358,241.642 C158.358,241.642,158.358,163.257,158.358,163.257 C158.358,157.845,162.744,153.459,168.156,153.459 z"/>
      <path id="Path 269" style="fill:#088357;fill-opacity:1;fill-rule:nonzero;opacity:1;stroke:none;" d="M198.012,153.632 C198.012,153.632,199.422,153.638,199.422,153.638 C203.554,155.323,201.96,154.271,204.478,156.328 C205.091,156.941,205.091,156.941,207.847,159.696 C207.847,159.696,279.495,231.345,279.495,231.345 C282.251,234.101,282.251,234.101,282.864,234.713 C286.69,238.54,286.69,244.744,282.864,248.57 C279.037,252.397,272.833,252.397,269.007,248.57 C269.007,248.57,190.622,170.185,190.622,170.185 C186.795,166.359,186.795,160.155,190.622,156.328 C193.035,153.992,194.816,153.742,198.012,153.632 z"/>
      <path id="Path 270" style="fill:#8cc63f;fill-opacity:1;fill-rule:nonzero;opacity:1;stroke:none;" d="M168.156,153.459 C173.567,153.459,177.954,157.845,177.954,163.257 C177.954,241.377,177.962,215.249,177.954,241.642 C177.954,247.053,173.567,251.44,168.156,251.44 C162.744,251.44,158.358,247.053,158.358,241.642 C158.358,241.642,158.358,163.257,158.358,163.257 C158.358,157.845,162.744,153.459,168.156,153.459 z"/>
      <path id="Path 271" style="fill:#ff931d;fill-opacity:1;fill-rule:nonzero;opacity:1;stroke:none;" d="M329.825,231.844 C335.236,231.844,339.623,236.23,339.623,241.642 C339.623,241.642,339.623,349.421,339.623,349.421 C339.623,354.833,335.236,359.219,329.825,359.219 C324.414,359.219,320.027,354.833,320.027,349.421 C320.027,349.421,320.027,241.642,320.027,241.642 C320.027,236.23,324.414,231.844,329.825,231.844 z M329.825,236.743 C327.119,236.743,324.926,238.936,324.926,241.642 C324.926,241.642,324.926,349.421,324.926,349.421 C324.926,352.127,327.119,354.32,329.825,354.32 C332.531,354.32,334.724,352.127,334.724,349.421 C334.724,349.421,334.724,241.642,334.724,241.642 C334.497,238.704,333.321,237.898,330.812,236.842 C330.812,236.842,329.825,236.743,329.825,236.743 z"/>
      <path id="Path 272" style="fill:#3da8f4;fill-opacity:1;fill-rule:nonzero;opacity:1;stroke:none;" d="M198.012,153.632 C198.012,153.632,199.422,153.638,199.422,153.638 C203.554,155.323,201.96,154.271,204.478,156.328 C205.091,156.941,205.091,156.941,207.847,159.696 C207.847,159.696,279.495,231.345,279.495,231.345 C282.251,234.101,282.251,234.101,282.864,234.713 C286.69,238.54,286.69,244.744,282.864,248.57 C279.037,252.397,272.833,252.397,269.007,248.57 C269.007,248.57,190.622,170.185,190.622,170.185 C186.795,166.359,186.795,160.155,190.622,156.328 C193.035,153.992,194.816,153.742,198.012,153.632 z"/>
      <path id="Path 273" style="fill:#ff1c24;fill-opacity:1;fill-rule:nonzero;opacity:1;stroke:none;" d="M139.223,261.412 C139.223,261.412,140.633,261.417,140.633,261.417 C144.765,263.102,143.171,262.051,145.69,264.108 C149.516,267.934,149.516,274.138,145.69,277.964 C145.272,278.382,144.854,278.8,144.437,279.217 C144.437,279.217,125.217,298.313,125.217,298.313 C125.217,298.313,124.737,298.793,124.737,298.793 C124.737,298.793,114.212,309.341,114.212,309.341 C114.212,309.341,113.376,310.179,113.376,310.179 C113.376,310.179,145.69,342.493,145.69,342.493 C149.516,346.319,149.516,352.523,145.69,356.349 C141.863,360.176,135.659,360.176,131.833,356.349 C131.221,355.737,131.221,355.737,128.465,352.981 C128.465,352.981,99.5354,324.051,99.5354,324.051 C99.5354,324.051,86.5684,337.046,86.5684,337.046 C84.8254,338.793,83.0824,340.539,81.3404,342.285 C81.3404,342.285,67.3054,356.349,67.3054,356.349 C63.4784,360.176,57.2744,360.176,53.4484,356.349 C49.6224,352.523,49.6224,346.319,53.4484,342.493 C53.4484,342.493,85.7124,310.228,85.7124,310.228 C85.7124,310.228,56.8164,281.332,56.8164,281.332 C55.7624,280.279,54.7094,279.225,53.6554,278.172 C53.6554,278.172,53.4484,277.964,53.4484,277.964 C49.6224,274.138,49.6224,267.934,53.4484,264.108 C55.8624,261.771,57.6424,261.521,60.8384,261.412 C60.8384,261.412,62.2484,261.417,62.2484,261.417 C66.3804,263.102,64.7864,262.051,67.3054,264.108 C67.3054,264.108,99.5694,296.372,99.5694,296.372 C110.327,285.62,121.078,274.862,131.833,264.108 C134.247,261.771,136.028,261.521,139.223,261.412 z M139.312,266.311 C137.586,266.321,136.575,266.384,135.297,267.572 C132.291,270.578,129.886,272.984,124.475,278.396 C124.475,278.396,124.474,278.396,124.474,278.396 C113.755,289.118,108.99,293.883,103.032,299.837 C101.119,301.749,98.0184,301.749,96.1054,299.836 C96.1054,299.836,64.0084,267.74,64.0084,267.74 C63.7064,267.492,63.4064,267.241,63.1054,266.992 C62.4984,266.78,61.8984,266.55,61.3014,266.313 C61.3014,266.313,60.9274,266.311,60.9274,266.311 C59.2014,266.321,58.1904,266.384,56.9124,267.572 C54.9994,269.485,54.9994,272.587,56.9134,274.501 C56.9134,274.501,57.1214,274.709,57.1214,274.709 C57.1214,274.709,57.1204,274.708,57.1204,274.708 C58.3184,275.906,59.3204,276.908,60.2804,277.868 C60.2804,277.868,89.1764,306.764,89.1764,306.764 C91.0904,308.678,91.0904,311.779,89.1764,313.693 C89.1764,313.693,56.9124,345.957,56.9124,345.957 C54.9994,347.87,54.9994,350.972,56.9124,352.885 C58.8254,354.799,61.9274,354.799,63.8374,352.889 C63.8374,352.889,77.8724,338.825,77.8724,338.825 C78.5674,338.128,79.1234,337.571,80.3754,336.316 C81.7374,334.951,82.3434,334.344,83.1004,333.586 C83.1004,333.586,96.0674,320.591,96.0674,320.591 C97.9794,318.674,101.084,318.672,102.999,320.587 C102.999,320.587,131.929,349.517,131.929,349.517 C134.538,352.126,133.583,351.17,134.796,352.384 C135.194,352.782,135.027,352.615,135.297,352.885 C137.21,354.799,140.312,354.799,142.226,352.885 C144.139,350.972,144.139,347.87,142.225,345.957 C142.225,345.957,109.912,313.643,109.912,313.643 C108,311.732,107.998,308.633,109.908,306.719 C109.908,306.719,110.744,305.881,110.744,305.881 C110.744,305.881,121.273,295.329,121.273,295.329 C121.273,295.329,121.764,294.838,121.764,294.838 C121.764,294.838,140.973,275.753,140.973,275.753 C141.599,275.126,141.599,275.126,142.226,274.5 C144.128,272.352,144.088,269.852,142.299,267.662 C142.029,267.44,141.76,267.215,141.49,266.992 C140.884,266.78,140.283,266.55,139.686,266.313 C139.686,266.313,139.312,266.311,139.312,266.311 z"/>
      <path id="Path 274" style="fill:#088357;fill-opacity:1;fill-rule:nonzero;opacity:1;stroke:none;" d="M168.156,261.238 C173.567,261.238,177.954,265.625,177.954,271.036 C177.954,271.036,177.954,349.421,177.954,349.421 C177.954,354.833,173.567,359.219,168.156,359.219 C162.744,359.219,158.358,354.833,158.358,349.421 C158.358,349.421,158.358,271.036,158.358,271.036 C158.358,265.625,162.744,261.238,168.156,261.238 z M168.156,266.137 C165.45,266.137,163.257,268.331,163.257,271.036 C163.257,271.036,163.257,349.421,163.257,349.421 C163.257,352.127,165.45,354.32,168.156,354.32 C170.862,354.32,173.055,352.127,173.055,349.421 C173.055,349.421,173.055,271.036,173.055,271.036 C173.055,268.331,170.862,266.137,168.156,266.137 z"/>
      <path id="Path 275" style="fill:#088357;fill-opacity:1;fill-rule:nonzero;opacity:1;stroke:none;" d="M276.397,261.412 C276.397,261.412,277.807,261.417,277.807,261.417 C281.939,263.102,280.345,262.051,282.864,264.108 C286.69,267.934,286.69,274.138,282.864,277.964 C282.251,278.577,282.251,278.577,279.495,281.333 C254.393,306.241,229.487,331.346,204.478,356.349 C200.652,360.176,194.448,360.176,190.622,356.349 C186.795,352.523,186.795,346.319,190.622,342.493 C191.039,342.075,191.457,341.658,191.875,341.24 C217.437,315.38,243.299,289.821,269.007,264.108 C271.42,261.771,273.201,261.521,276.397,261.412 z M276.485,266.311 C274.76,266.321,273.749,266.384,272.471,267.572 C272.314,267.729,272.314,267.729,272.178,267.865 C272.178,267.865,272.178,267.865,272.178,267.865 C271.795,268.248,271.563,268.481,269.103,270.94 C269.103,270.94,197.454,342.589,197.454,342.589 C194.995,345.049,194.762,345.281,194.379,345.664 C194.379,345.664,194.379,345.664,194.379,345.664 C194.243,345.8,194.243,345.8,194.086,345.957 C192.173,347.87,192.173,350.972,194.086,352.885 C195.999,354.799,199.101,354.799,201.015,352.885 C201.172,352.728,201.172,352.728,201.308,352.592 C202.333,351.567,203.358,350.542,204.382,349.517 C204.382,349.517,276.031,277.868,276.031,277.868 C276.031,277.868,276.854,277.046,276.854,277.046 C276.854,277.046,279.399,274.5,279.399,274.5 C281.302,272.352,281.262,269.852,279.473,267.662 C279.202,267.44,278.934,267.215,278.664,266.992 C278.057,266.78,277.457,266.55,276.86,266.313 C276.86,266.313,276.485,266.311,276.485,266.311 z"/>
      <path id="Path 276" style="fill:#8cc63f;fill-opacity:1;fill-rule:nonzero;opacity:1;stroke:none;" d="M168.156,261.238 C173.567,261.238,177.954,265.625,177.954,271.036 C177.954,271.036,177.954,349.421,177.954,349.421 C177.954,354.833,173.567,359.219,168.156,359.219 C162.744,359.219,158.358,354.833,158.358,349.421 C158.358,349.421,158.358,271.036,158.358,271.036 C158.358,265.625,162.744,261.238,168.156,261.238 z M168.156,266.137 C165.45,266.137,163.257,268.331,163.257,271.036 C163.257,271.036,163.257,349.421,163.257,349.421 C163.257,352.127,165.45,354.32,168.156,354.32 C170.862,354.32,173.055,352.127,173.055,349.421 C173.055,349.421,173.055,271.036,173.055,271.036 C173.055,268.331,170.862,266.137,168.156,266.137 z"/>
      <path id="Path 277" style="fill:#3da8f4;fill-opacity:1;fill-rule:nonzero;opacity:1;stroke:none;" d="M276.397,261.412 C276.397,261.412,277.807,261.417,277.807,261.417 C281.939,263.102,280.345,262.051,282.864,264.108 C286.69,267.934,286.69,274.138,282.864,277.964 C282.251,278.577,282.251,278.577,279.495,281.333 C254.393,306.241,229.487,331.346,204.478,356.349 C200.652,360.176,194.448,360.176,190.622,356.349 C186.795,352.523,186.795,346.319,190.622,342.493 C191.039,342.075,191.457,341.658,191.875,341.24 C217.437,315.38,243.299,289.821,269.007,264.108 C271.42,261.771,273.201,261.521,276.397,261.412 z M276.485,266.311 C274.76,266.321,273.749,266.384,272.471,267.572 C272.314,267.729,272.314,267.729,272.178,267.865 C272.178,267.865,272.178,267.865,272.178,267.865 C271.795,268.248,271.563,268.481,269.103,270.94 C269.103,270.94,197.454,342.589,197.454,342.589 C194.995,345.049,194.762,345.281,194.379,345.664 C194.379,345.664,194.379,345.664,194.379,345.664 C194.243,345.8,194.243,345.8,194.086,345.957 C192.173,347.87,192.173,350.972,194.086,352.885 C195.999,354.799,199.101,354.799,201.015,352.885 C201.172,352.728,201.172,352.728,201.308,352.592 C202.333,351.567,203.358,350.542,204.382,349.517 C204.382,349.517,276.031,277.868,276.031,277.868 C276.031,277.868,276.854,277.046,276.854,277.046 C276.854,277.046,279.399,274.5,279.399,274.5 C281.302,272.352,281.262,269.852,279.473,267.662 C279.202,267.44,278.934,267.215,278.664,266.992 C278.057,266.78,277.457,266.55,276.86,266.313 C276.86,266.313,276.485,266.311,276.485,266.311 z"/>
      <path id="Path 278" style="fill:#ff931d;fill-opacity:1;fill-rule:nonzero;opacity:1;stroke:none;" d="M344.522,153.459 C349.934,153.459,354.32,157.845,354.32,163.257 C354.32,163.257,354.32,231.844,354.32,231.844 C354.32,234.442,353.288,236.934,351.45,238.772 C351.45,238.772,341.652,248.57,341.652,248.57 C339.815,250.408,337.323,251.44,334.724,251.44 C334.724,251.44,305.33,251.44,305.33,251.44 C299.918,251.44,295.532,247.053,295.532,241.642 C295.532,236.23,299.918,231.844,305.33,231.844 C305.33,231.844,330.665,231.844,330.665,231.844 C330.665,231.844,334.724,227.785,334.724,227.785 C334.724,227.785,334.724,163.257,334.724,163.257 C334.724,157.845,339.111,153.459,344.522,153.459 z"/>
      <path id="Path 279" style="fill:#fbed21;fill-opacity:1;fill-rule:nonzero;opacity:1;stroke:none;" d="M452.302,231.844 C457.713,231.844,462.1,236.23,462.1,241.642 C462.1,247.053,457.713,251.44,452.302,251.44 C452.302,251.44,373.917,251.44,373.917,251.44 C368.505,251.44,364.118,247.053,364.118,241.642 C364.118,236.23,368.505,231.844,373.917,231.844 C373.917,231.844,452.302,231.844,452.302,231.844 z"/>
      <path id="Path 280" style="fill:#fbed21;fill-opacity:1;fill-rule:nonzero;opacity:1;stroke:none;" d="M452.302,266.137 C457.713,266.137,462.1,270.524,462.1,275.935 C462.1,281.347,457.713,285.733,452.302,285.733 C452.302,285.733,373.917,285.733,373.917,285.733 C368.505,285.733,364.118,281.347,364.118,275.935 C364.118,270.524,368.505,266.137,373.917,266.137 C373.917,266.137,452.302,266.137,452.302,266.137 z M452.302,271.036 C452.302,271.036,373.917,271.036,373.917,271.036 C371.211,271.036,369.018,273.23,369.018,275.935 C369.018,278.641,371.211,280.834,373.917,280.834 C373.917,280.834,452.302,280.834,452.302,280.834 C455.007,280.834,457.201,278.641,457.201,275.935 C457.201,273.23,455.007,271.036,452.302,271.036 z"/>
      <path id="Path 281" style="fill:#fbed21;fill-opacity:1;fill-rule:nonzero;opacity:1;stroke:none;" d="M452.302,197.55 C457.713,197.55,462.1,201.937,462.1,207.348 C462.1,212.76,457.713,217.146,452.302,217.146 C452.302,217.146,373.917,217.146,373.917,217.146 C368.505,217.146,364.118,212.76,364.118,207.348 C364.118,201.937,368.505,197.55,373.917,197.55 C373.917,197.55,452.302,197.55,452.302,197.55 z"/>
      <path id="Path 282" style="fill:#fbed21;fill-opacity:1;fill-rule:nonzero;opacity:1;stroke:none;" d="M452.763,153.632 C452.763,153.632,454.173,153.638,454.173,153.638 C458.305,155.323,456.712,154.271,459.23,156.328 C463.056,160.155,463.056,166.359,459.23,170.185 C459.23,170.185,449.432,179.983,449.432,179.983 C447.594,181.821,445.102,182.853,442.504,182.853 C442.504,182.853,373.917,182.853,373.917,182.853 C368.505,182.853,364.118,178.466,364.118,173.055 C364.118,167.644,368.505,163.257,373.917,163.257 C373.917,163.257,438.445,163.257,438.445,163.257 C438.445,163.257,445.373,156.328,445.373,156.328 C447.787,153.992,449.568,153.742,452.763,153.632 z"/>
      <path id="Path 283" style="fill:#fbed21;fill-opacity:1;fill-rule:nonzero;opacity:1;stroke:none;" d="M452.302,300.431 C457.713,300.431,462.1,304.817,462.1,310.229 C462.1,310.229,462.1,339.623,462.1,339.623 C462.1,342.222,461.067,344.714,459.23,346.551 C459.23,346.551,449.432,356.349,449.432,356.349 C447.594,358.187,445.102,359.219,442.504,359.219 C442.504,359.219,373.917,359.219,373.917,359.219 C368.505,359.219,364.118,354.833,364.118,349.421 C364.118,349.421,364.118,310.229,364.118,310.229 C364.118,304.817,368.505,300.431,373.917,300.431 C373.917,300.431,452.302,300.431,452.302,300.431 z M452.302,305.33 C452.302,305.33,373.917,305.33,373.917,305.33 C371.211,305.33,369.018,307.523,369.018,310.229 C369.018,310.229,369.018,349.421,369.018,349.421 C369.018,352.127,371.211,354.32,373.917,354.32 C373.917,354.32,442.504,354.32,442.504,354.32 C443.803,354.32,445.049,353.804,445.968,352.885 C445.968,352.885,455.766,343.087,455.766,343.087 C456.685,342.168,457.201,340.922,457.201,339.623 C457.201,339.623,457.201,310.229,457.201,310.229 C457.201,307.523,455.007,305.33,452.302,305.33 z M442.504,315.128 C445.209,315.128,447.403,317.321,447.403,320.027 C447.403,320.027,447.403,335.564,447.403,335.564 C447.403,336.864,446.886,338.11,445.968,339.029 C445.968,339.029,441.909,343.087,441.909,343.087 C440.99,344.006,439.744,344.522,438.445,344.522 C438.445,344.522,383.715,344.522,383.715,344.522 C381.009,344.522,378.816,342.329,378.816,339.623 C378.816,339.623,378.816,320.027,378.816,320.027 C378.816,317.321,381.009,315.128,383.715,315.128 C383.715,315.128,442.504,315.128,442.504,315.128 z M442.504,320.027 C442.504,320.027,383.715,320.027,383.715,320.027 C383.715,320.027,383.715,339.623,383.715,339.623 C383.715,339.623,438.445,339.623,438.445,339.623 C438.445,339.623,442.504,335.564,442.504,335.564 C442.504,335.564,442.504,320.027,442.504,320.027 z"/>
    </g>
  </g>
</svg>
