<?xml version="1.0" encoding="UTF-8"?>
<svg width="512px" height="512px" viewBox="0 0 512 512" version="1.1" xmlns="http://www.w3.org/2000/svg" xmlns:xlink="http://www.w3.org/1999/xlink">
    <title>xinjs-logo</title>
    <defs>
        <circle id="path-1" cx="256" cy="256" r="256"></circle>
        <polygon id="path-3" points="0 95.4674568 15.3864647 60.6863077 0.738550307 27.3823504 14.0324558 27.3823504 21.787234 46.7201321 29.5420123 27.3823504 42.8359178 27.3823504 27.9418199 60.6863077 43.5744681 95.4674568 30.2805626 95.4674568 21.787234 74.6524834 13.2939055 95.4674568"></polygon>
        <path d="M49.0212766,95.4674568 L49.0212766,29.5320037 L62.6382979,29.5320037 L62.6382979,95.4674568 L49.0212766,95.4674568 Z M55.7053716,19.0085449 L46.3255148,9.62868808 L55.9542029,5.27577981e-13 L65.3340597,9.37985682 L55.7053716,19.0085449 Z" id="path-4"></path>
        <path d="M70.8085106,95.4674568 L70.8085106,28.1786674 L84.4701779,28.1786674 L84.4701779,34.6819232 L84.7380537,34.6819232 C86.1667248,32.5584111 87.8855947,30.8109376 89.8946634,29.4395027 C91.9037321,28.0680678 94.4708755,27.3823504 97.5960935,27.3823504 C99.2926404,27.3823504 100.989187,27.6699093 102.685734,28.2450272 C104.382281,28.820145 105.900244,29.7713015 107.239623,31.0984965 C108.579002,32.4256916 109.650506,34.1289253 110.454133,36.2081975 C111.257761,38.2874698 111.659574,40.8312603 111.659574,43.8395691 L111.659574,95.4674568 L97.9979072,95.4674568 L97.9979072,48.8829103 C97.9979072,46.4054795 97.4175096,44.4589268 96.2567143,43.043252 C95.0959191,41.6275773 93.4440181,40.91974 91.3010115,40.91974 C88.7115452,40.91974 86.9257063,41.716057 85.9434949,43.3086911 C84.9612836,44.9013251 84.4701779,47.2017966 84.4701779,50.2101054 L84.4701779,95.4674568 L70.8085106,95.4674568 Z" id="path-5"></path>
        <path d="M120.059472,29.6602687 L133.446809,29.6602687 L133.446809,102.969441 C133.446809,109.503235 131.390584,114.42536 127.278134,117.735816 C123.165684,121.046271 117.959498,122.701499 111.659574,122.701499 L111.659574,110.156614 C114.897035,110.156614 117.128258,109.329 118.353243,107.673772 C119.053234,106.715483 119.512604,105.474062 119.731351,103.94951 C119.950098,102.424958 120.059472,100.44304 120.059472,98.0037569 L120.059472,29.6602687 Z M126.732494,18.9818126 L117.30751,9.55682845 L126.773786,0.0905519701 L136.198771,9.51553608 L126.732494,18.9818126 Z" id="path-6"></path>
        <path d="M168.895857,46.7977564 C168.806271,44.5238801 168.067189,42.8184728 166.678611,41.6815346 C165.290034,40.5445964 163.699888,39.9761273 161.908175,39.9761273 C159.758119,39.9761273 158.100784,40.6539174 156.93617,42.0094975 C155.771557,43.3650777 155.18925,44.9174356 155.18925,46.6665713 C155.18925,47.8909662 155.5028,49.093497 156.129899,50.2741636 C156.756999,51.4548302 158.369541,52.5261758 160.967525,53.4882004 L169.030235,56.6366447 C174.136618,58.5606939 177.652856,61.1843974 179.578947,64.5077552 C181.505039,67.831113 182.468085,71.4605695 182.468085,75.3961248 C182.468085,78.1947419 181.952968,80.7965812 180.922732,83.2016428 C179.892497,85.6067044 178.481523,87.7275314 176.68981,89.5641238 C174.898096,91.4007163 172.74804,92.8437532 170.239642,93.8932347 C167.731243,94.9427161 164.99888,95.4674568 162.042553,95.4674568 C156.488242,95.4674568 151.829787,93.7620495 148.067189,90.3512349 C146.18589,88.689556 144.662934,86.6124574 143.49832,84.119939 C142.333707,81.6274207 141.706607,78.7194826 141.617021,75.3961248 L154.517357,75.3961248 C154.786114,77.2327173 155.43561,78.9381246 156.465845,80.5123467 C157.496081,82.0865688 159.31019,82.8736799 161.908175,82.8736799 C163.879059,82.8736799 165.648376,82.2396182 167.216125,80.9714948 C168.783875,79.7033714 169.567749,77.9323716 169.567749,75.6584952 C169.567749,73.8219027 169.075028,72.2476806 168.089586,70.9358288 C167.104143,69.6239771 165.31243,68.4870389 162.714446,67.5250143 L156.129899,65.1636811 C151.829787,63.589459 148.447928,61.24999 145.984323,58.1452742 C143.520717,55.0405583 142.288914,51.2580524 142.288914,46.7977564 C142.288914,43.9991394 142.826428,41.3973 143.901456,38.9922385 C144.976484,36.5871769 146.454647,34.5100783 148.335946,32.7609426 C150.12766,31.0118069 152.232923,29.678091 154.651736,28.7597947 C157.070549,27.8414985 159.668533,27.3823504 162.445689,27.3823504 C165.222844,27.3823504 167.798432,27.8633627 170.172452,28.8253873 C172.546473,29.7874119 174.584546,31.1429921 176.286674,32.8921278 C177.988802,34.6412635 179.332587,36.7183621 180.318029,39.1234236 C181.303471,41.5284852 181.796193,44.0865961 181.796193,46.7977564 L168.895857,46.7977564 Z" id="path-7"></path>
    </defs>
    <g id="Page-1" stroke="none" stroke-width="1" fill="none" fill-rule="evenodd">
        <mask id="mask-2" fill="white">
            <use xlink:href="#path-1"></use>
        </mask>
        <use id="Oval" fill="#088358" xlink:href="#path-1"></use>
        <rect id="Rectangle" fill="#088358" mask="url(#mask-2)" x="-5" y="-5" width="522" height="522"></rect>
        <g id="Group" mask="url(#mask-2)">
            <g transform="translate(0.000000, 28.000000)" id="xinjs-logo">
                <rect id="Rectangle-Copy" fill="#088358" x="0" y="0" width="512" height="512"></rect>
                <g id="text" transform="translate(166.127660, 315.766586)" fill-rule="nonzero">
                    <g id="Path">
                        <use fill="#FFFFFF" xlink:href="#path-3"></use>
                        <use fill="#ECF3DD" xlink:href="#path-3"></use>
                    </g>
                    <g id="Shape">
                        <use fill="#FFFFFF" xlink:href="#path-4"></use>
                        <use fill="#ECF3DD" xlink:href="#path-4"></use>
                    </g>
                    <g id="Path">
                        <use fill="#FFFFFF" xlink:href="#path-5"></use>
                        <use fill="#ECF3DD" xlink:href="#path-5"></use>
                    </g>
                    <g id="Shape">
                        <use fill="#FFFFFF" xlink:href="#path-6"></use>
                        <use fill="#ECF3DD" xlink:href="#path-6"></use>
                    </g>
                    <g id="Path">
                        <use fill="#FFFFFF" xlink:href="#path-7"></use>
                        <use fill="#ECF3DD" xlink:href="#path-7"></use>
                    </g>
                </g>
                <g id="icon" transform="translate(67.908359, 73.978553)" fill="#ECF3DD" fill-rule="nonzero">
                    <path d="M52.8821115,-0.446638298 C42.3410387,-0.446638298 34.3206572,2.77829222 28.8209671,9.68885762 C23.7795845,15.9083665 21.2588931,24.201045 21.2588931,34.7972453 L21.2588931,76.721342 C21.2588931,83.1712031 19.8839706,88.0085988 17.1341255,91.2335294 C13.9259729,94.4584599 8.19712904,96.5316295 0.176747579,97.222686 L0.176747579,117.032974 C8.19712904,117.493678 13.9259729,119.566848 17.1341255,123.252482 C19.8839706,126.016709 21.2588931,130.854104 21.2588931,137.534318 L21.2588931,179.688767 C21.2588931,190.054615 23.7795845,198.347293 28.8209671,204.566802 C34.3206572,211.247015 42.3410387,214.702298 52.8821115,214.702298 L70.9852582,214.702298 L70.9852582,194.661658 L57.4651866,194.661658 C49.2156514,194.661658 45.0908838,189.824262 45.0908838,180.610175 L45.0908838,136.152204 C45.0908838,122.331074 38.4454248,112.656282 25.154507,107.12783 C38.4454248,102.290434 45.0908838,92.6156424 45.0908838,78.1034551 L45.0908838,33.8758365 C45.0908838,24.201045 49.2156514,19.5940014 57.4651866,19.5940014 L70.9852582,19.5940014 L70.9852582,-0.446638298 L52.8821115,-0.446638298 Z" id="Path"></path>
                    <path d="M104.440068,96.347446 L104.440068,214.702298 L128.115646,214.702298 L128.115646,59.1895274 C136.390605,43.5923764 143.056544,27.3071157 148.113463,10.1043756 L125.587186,-0.446638298 C115.473347,34.8763214 99.8428687,65.6118837 79.155471,91.7600486 L87.2005701,117.449474 C93.1769294,110.568378 98.9234288,103.687282 104.440068,96.347446 Z M142.826684,28.6833349 L142.826684,51.161582 L294.304407,51.161582 L294.304407,28.6833349 L232.472074,28.6833349 C230.173474,20.4260197 226.725575,11.251225 222.128375,1.38832065 L199.142378,7.58130708 C202.590277,14.4624031 205.808317,21.3434992 208.796497,28.6833349 L142.826684,28.6833349 Z M163.514082,63.318185 L163.514082,84.6495827 L274.996169,84.6495827 L274.996169,63.318185 L163.514082,63.318185 Z M163.514082,95.6593364 L163.514082,117.220104 L274.996169,117.220104 L274.996169,95.6593364 L163.514082,95.6593364 Z M280.053089,129.835447 L158.227302,129.835447 L158.227302,214.243558 L181.67302,214.243558 L181.67302,202.775065 L256.837231,202.775065 L256.837231,214.243558 L280.053089,214.243558 L280.053089,129.835447 Z M181.67302,180.067448 L181.67302,152.084324 L256.837231,152.084324 L256.837231,180.067448 L181.67302,180.067448 Z" id="Shape"></path>
                    <path d="M305.198024,-0.446638298 L305.198024,19.5940014 L318.718096,19.5940014 C326.967631,19.5940014 331.092399,24.201045 331.092399,33.8758365 L331.092399,78.1034551 C331.092399,92.6156424 337.737858,102.290434 351.028775,107.12783 C337.737858,112.656282 331.092399,122.331074 331.092399,136.152204 L331.092399,180.610175 C331.092399,189.824262 326.967631,194.661658 318.718096,194.661658 L305.198024,194.661658 L305.198024,214.702298 L323.301171,214.702298 C333.61309,214.702298 341.633471,211.247015 347.362315,204.566802 C352.403698,198.347293 354.924389,190.054615 354.924389,179.688767 L354.924389,137.534318 C354.924389,130.854104 356.299312,126.016709 359.049157,123.252482 C362.257309,119.566848 367.757,117.493678 376.006535,117.032974 L376.006535,97.222686 C367.757,96.5316295 362.257309,94.6888121 359.278311,91.4638815 C356.299312,88.238951 354.924389,83.1712031 354.924389,76.721342 L354.924389,34.7972453 C354.924389,24.201045 352.403698,15.9083665 347.362315,9.68885762 C341.633471,2.77829222 333.61309,-0.446638298 323.301171,-0.446638298 L305.198024,-0.446638298 Z" id="Path"></path>
                </g>
            </g>
        </g>
    </g>
</svg>