<?xml version="1.0" encoding="UTF-8"?>
<!DOCTYPE svg PUBLIC "-//W3C//DTD SVG 1.1//EN" "http://www.w3.org/Graphics/SVG/1.1/DTD/svg11.dtd">
<svg version="1.1" xmlns="http://www.w3.org/2000/svg" xmlns:xlink="http://www.w3.org/1999/xlink" x="0" y="0" width="512" height="512" viewBox="0, 0, 512, 512">
  <g id="Layer_2" display="none">
    <path d="M0,0 L512,0 L512,512 L0,512 L0,0 z" fill="#000000"/>
  </g>
  <g id="Layer_3" display="none">
    <path d="M256,512 C114.615,512 0,397.385 0,256 C0,114.615 114.615,0 256,0 C397.385,0 512,114.615 512,256 C512,397.385 397.385,512 256,512 z" fill="#000000"/>
  </g>
  <g id="Layer_1" display="none">
    <path d="M164.469,205.176 L165.908,205.182 C170.126,206.901 168.499,205.828 171.069,207.928 C174.975,211.833 174.975,218.164 171.069,222.07 C167.732,225.407 164.394,228.744 161.057,232.082 C144.304,248.835 151.942,241.196 138.141,254.998 C144.592,261.45 139.748,256.605 152.675,269.533 C156.623,273.48 160.57,277.428 164.517,281.375 L171.069,287.927 C174.975,291.832 174.975,298.164 171.069,302.069 C167.164,305.974 160.833,305.974 156.927,302.069 C153.59,298.732 150.253,295.394 146.915,292.057 L123.999,269.14 C117.547,275.592 122.392,270.747 109.464,283.675 L91.07,302.069 C87.165,305.974 80.833,305.974 76.928,302.069 C73.023,298.164 73.023,291.832 76.928,287.927 C80.265,284.589 83.603,281.252 86.94,277.915 L109.857,254.998 C103.405,248.547 108.25,253.391 95.322,240.464 C91.374,236.517 87.428,232.569 83.48,228.622 L76.928,222.07 C73.023,218.164 73.023,211.833 76.928,207.928 C79.249,205.604 81.35,205.283 84.47,205.176 L85.909,205.182 C90.127,206.901 88.5,205.828 91.07,207.928 C94.408,211.265 97.745,214.603 101.082,217.94 C117.835,234.693 110.197,227.055 123.999,240.856 L138.533,226.322 C142.48,222.374 146.428,218.427 150.375,214.48 L156.927,207.928 C159.249,205.604 161.349,205.283 164.469,205.176 z" fill="#FFFFFF"/>
    <path d="M203.998,204.999 C209.521,204.999 213.998,209.476 213.998,214.999 L213.998,294.998 C213.998,300.521 209.521,304.998 203.998,304.998 C198.475,304.998 193.998,300.521 193.998,294.998 L193.998,214.999 C193.998,209.476 198.475,204.999 203.998,204.999 z" fill="#FFFFFF"/>
    <path d="M243.496,205.01 C247.11,204.971 249.643,206.44 251.998,208.999 C252.467,209.624 252.467,209.624 254.576,212.436 C257.389,216.186 257.389,216.186 261.373,221.499 C270.748,233.999 270.748,233.999 281.998,248.999 C293.248,263.998 293.248,263.998 302.623,276.498 C306.607,281.811 306.607,281.811 309.419,285.561 C311.529,288.373 311.529,288.373 311.998,288.998 C315.311,293.417 314.416,299.684 309.998,302.998 C305.579,306.312 299.311,305.416 295.998,300.998 C295.529,300.373 295.529,300.373 293.42,297.561 C290.607,293.811 290.607,293.811 286.623,288.498 C277.248,275.998 277.248,275.998 265.998,260.998 C254.748,245.999 254.748,245.999 245.373,233.499 C241.389,228.186 241.389,228.186 238.576,224.436 C236.467,221.624 236.467,221.624 235.998,220.999 C232.684,216.58 233.58,210.312 237.998,206.999 C240.839,205.284 239.077,206.116 243.496,205.01 z" fill="#FFFFFF"/>
    <path d="M343.997,204.999 C349.52,204.999 353.997,209.476 353.997,214.999 L353.997,314.998 C353.997,318.786 351.857,322.248 348.469,323.942 C347.22,324.567 347.22,324.567 342.219,327.067 C335.97,330.192 335.97,330.192 328.47,333.942 C320.97,337.692 320.97,337.692 314.72,340.817 C309.72,343.317 309.72,343.317 308.47,343.942 C303.53,346.412 297.523,344.41 295.053,339.47 C292.584,334.53 294.586,328.524 299.526,326.054 C300.776,325.429 300.776,325.429 305.775,322.929 C312.025,319.804 312.025,319.804 319.525,316.054 C327.025,312.304 327.025,312.304 333.275,309.179 L333.997,308.818 L333.997,214.999 C333.997,209.476 338.475,204.999 343.997,204.999 z" fill="#FFFFFF"/>
    <path d="M442.811,205.067 C447.931,204.876 451.423,207.25 453.483,211.836 C455.23,217.076 452.398,222.739 447.159,224.485 C445.284,225.11 445.284,225.11 437.784,227.61 C428.409,230.735 428.409,230.735 417.159,234.485 C405.909,238.235 405.909,238.235 396.534,241.36 C389.034,243.86 389.034,243.86 387.159,244.485 C381.92,246.232 376.257,243.4 374.51,238.161 C372.764,232.921 375.595,227.258 380.835,225.512 C382.71,224.887 382.71,224.887 390.21,222.387 C399.585,219.262 399.585,219.262 410.835,215.512 C422.085,211.762 422.085,211.762 431.46,208.637 C438.96,206.137 438.96,206.137 440.834,205.512 L442.811,205.067 z" fill="#FFFFFF"/>
    <path d="M442.811,265.067 C447.931,264.875 451.423,267.25 453.483,271.836 C455.23,277.075 452.398,282.739 447.159,284.485 C445.284,285.11 445.284,285.11 437.784,287.61 C428.409,290.735 428.409,290.735 417.159,294.485 C405.909,298.235 405.909,298.235 396.534,301.36 C389.034,303.86 389.034,303.86 387.159,304.485 C381.92,306.231 376.257,303.4 374.51,298.16 C372.764,292.921 375.595,287.258 380.835,285.511 C382.71,284.886 382.71,284.886 390.21,282.386 C399.585,279.261 399.585,279.261 410.835,275.511 C422.085,271.761 422.085,271.761 431.46,268.636 C438.96,266.137 438.96,266.137 440.834,265.512 L442.811,265.067 z" fill="#FFFFFF"/>
  </g>
  <g id="Logo_Black">
    <path d="M164.469,205.176 L165.908,205.182 C170.126,206.901 168.499,205.828 171.069,207.928 C174.975,211.833 174.975,218.164 171.069,222.07 C167.732,225.407 164.394,228.744 161.057,232.082 C144.304,248.835 151.942,241.196 138.141,254.998 C144.592,261.45 139.748,256.605 152.675,269.533 C156.623,273.48 160.57,277.428 164.517,281.375 L171.069,287.927 C174.975,291.832 174.975,298.164 171.069,302.069 C167.164,305.974 160.833,305.974 156.927,302.069 C153.59,298.732 150.253,295.394 146.915,292.057 L123.999,269.14 C117.547,275.592 122.392,270.747 109.464,283.675 L91.07,302.069 C87.165,305.974 80.833,305.974 76.928,302.069 C73.023,298.164 73.023,291.832 76.928,287.927 C80.265,284.589 83.603,281.252 86.94,277.915 L109.857,254.998 C103.405,248.547 108.25,253.391 95.322,240.464 C91.374,236.517 87.428,232.569 83.48,228.622 L76.928,222.07 C73.023,218.164 73.023,211.833 76.928,207.928 C79.249,205.604 81.35,205.283 84.47,205.176 L85.909,205.182 C90.127,206.901 88.5,205.828 91.07,207.928 C94.408,211.265 97.745,214.603 101.082,217.94 C117.835,234.693 110.197,227.055 123.999,240.856 L138.533,226.322 C142.48,222.374 146.428,218.427 150.375,214.48 L156.927,207.928 C159.249,205.604 161.349,205.283 164.469,205.176 z" fill="#000000"/>
    <path d="M203.998,204.999 C209.521,204.999 213.998,209.476 213.998,214.999 L213.998,294.998 C213.998,300.521 209.521,304.998 203.998,304.998 C198.475,304.998 193.998,300.521 193.998,294.998 L193.998,214.999 C193.998,209.476 198.475,204.999 203.998,204.999 z" fill="#000000"/>
    <path d="M243.496,205.01 C247.11,204.971 249.643,206.44 251.998,208.999 C252.467,209.624 252.467,209.624 254.576,212.436 C257.389,216.186 257.389,216.186 261.373,221.499 C270.748,233.999 270.748,233.999 281.998,248.999 C293.248,263.998 293.248,263.998 302.623,276.498 C306.607,281.811 306.607,281.811 309.419,285.561 C311.529,288.373 311.529,288.373 311.998,288.998 C315.311,293.417 314.416,299.684 309.998,302.998 C305.579,306.312 299.311,305.416 295.998,300.998 C295.529,300.373 295.529,300.373 293.42,297.561 C290.607,293.811 290.607,293.811 286.623,288.498 C277.248,275.998 277.248,275.998 265.998,260.998 C254.748,245.999 254.748,245.999 245.373,233.499 C241.389,228.186 241.389,228.186 238.576,224.436 C236.467,221.624 236.467,221.624 235.998,220.999 C232.684,216.58 233.58,210.312 237.998,206.999 C240.839,205.284 239.077,206.116 243.496,205.01 z" fill="#000000"/>
    <path d="M343.997,204.999 C349.52,204.999 353.997,209.476 353.997,214.999 L353.997,314.998 C353.997,318.786 351.857,322.248 348.469,323.942 C347.22,324.567 347.22,324.567 342.219,327.067 C335.97,330.192 335.97,330.192 328.47,333.942 C320.97,337.692 320.97,337.692 314.72,340.817 C309.72,343.317 309.72,343.317 308.47,343.942 C303.53,346.412 297.523,344.41 295.053,339.47 C292.584,334.53 294.586,328.524 299.526,326.054 C300.776,325.429 300.776,325.429 305.775,322.929 C312.025,319.804 312.025,319.804 319.525,316.054 C327.025,312.304 327.025,312.304 333.275,309.179 L333.997,308.818 L333.997,214.999 C333.997,209.476 338.475,204.999 343.997,204.999 z" fill="#000000"/>
    <path d="M442.811,205.067 C447.931,204.876 451.423,207.25 453.483,211.836 C455.23,217.076 452.398,222.739 447.159,224.485 C445.284,225.11 445.284,225.11 437.784,227.61 C428.409,230.735 428.409,230.735 417.159,234.485 C405.909,238.235 405.909,238.235 396.534,241.36 C389.034,243.86 389.034,243.86 387.159,244.485 C381.92,246.232 376.257,243.4 374.51,238.161 C372.764,232.921 375.595,227.258 380.835,225.512 C382.71,224.887 382.71,224.887 390.21,222.387 C399.585,219.262 399.585,219.262 410.835,215.512 C422.085,211.762 422.085,211.762 431.46,208.637 C438.96,206.137 438.96,206.137 440.834,205.512 L442.811,205.067 z" fill="#000000"/>
    <path d="M442.811,265.067 C447.931,264.875 451.423,267.25 453.483,271.836 C455.23,277.075 452.398,282.739 447.159,284.485 C445.284,285.11 445.284,285.11 437.784,287.61 C428.409,290.735 428.409,290.735 417.159,294.485 C405.909,298.235 405.909,298.235 396.534,301.36 C389.034,303.86 389.034,303.86 387.159,304.485 C381.92,306.231 376.257,303.4 374.51,298.16 C372.764,292.921 375.595,287.258 380.835,285.511 C382.71,284.886 382.71,284.886 390.21,282.386 C399.585,279.261 399.585,279.261 410.835,275.511 C422.085,271.761 422.085,271.761 431.46,268.636 C438.96,266.137 438.96,266.137 440.834,265.512 L442.811,265.067 z" fill="#000000"/>
  </g>
</svg>
