<?xml version="1.0" encoding="UTF-8"?>
<svg width="512px" height="512px" viewBox="0 0 512 512" version="1.1" xmlns="http://www.w3.org/2000/svg" xmlns:xlink="http://www.w3.org/1999/xlink">
    <title>xinjs-logo</title>
    <defs>
        <circle id="path-1" cx="256" cy="256" r="256"></circle>
        <polygon id="path-3" points="-0.789621673 68.0250754 10.7502269 42.9826482 -0.235708943 19.0037989 9.73472019 19.0037989 15.5508039 32.9270017 21.3668875 19.0037989 31.3373167 19.0037989 20.1667433 42.9826482 31.8912294 68.0250754 21.9208003 68.0250754 15.5508039 53.0382946 9.18080747 68.0250754"></polygon>
        <path d="M37.3380379,68.0250754 L37.3380379,19.5431247 L48.2316549,19.5431247 L48.2316549,68.0250754 L37.3380379,68.0250754 Z M37.3380379,9.6937343 L37.3380379,-0.0600309355 L48.2316549,-0.0600309355 L48.2316549,9.6937343 L37.3380379,9.6937343 Z" id="path-4"></path>
        <path d="M53.6784634,68.0250754 L53.6784634,19.5771471 L63.6970194,19.5771471 L63.6970194,24.2594913 L63.8934617,24.2594913 C64.9411538,22.7305626 66.2016584,21.4723817 67.6749755,20.4849485 C69.1482925,19.4975154 71.0308643,19.0037989 73.3226908,19.0037989 C74.5668253,19.0037989 75.8109597,19.2108413 77.0550941,19.6249261 C78.2992285,20.039011 79.4124013,20.7238436 80.3946127,21.6794241 C81.3768241,22.6350045 82.1625932,23.8613328 82.75192,25.3584088 C83.3412468,26.8554848 83.6359102,28.687014 83.6359102,30.8529963 L83.6359102,68.0250754 L73.6173543,68.0250754 L73.6173543,34.484202 C73.6173543,32.7004518 73.1917293,31.2989339 72.3404795,30.279648 C71.4892296,29.2603622 70.2778356,28.7507193 68.7062974,28.7507193 C66.8073554,28.7507193 65.4977403,29.3240676 64.7774519,30.4707641 C64.0571636,31.6174607 63.6970194,33.2738001 63.6970194,35.4397824 L63.6970194,68.0250754 L53.6784634,68.0250754 Z" id="path-5"></path>
        <path d="M92.6592376,19.4225557 L102.69974,19.4225557 L102.69974,72.7383171 C102.69974,77.4901674 101.157571,81.0698947 98.073234,83.4774989 C94.9888967,85.8851031 91.0842568,87.0889052 86.3593145,87.0889052 L86.3593145,77.9653525 C88.7874099,77.9653525 90.4608269,77.3634514 91.3795657,76.1596493 C91.9045593,75.4627113 92.2490864,74.5598597 92.4131468,73.4510946 C92.5772073,72.3423295 92.6592376,70.9009349 92.6592376,69.1269108 L92.6592376,19.4225557 Z M92.6592376,9.63374386 L92.6592376,-0.0600309355 L102.69974,-0.0600309355 L102.69974,9.63374386 L92.6592376,9.63374386 Z" id="path-6"></path>
        <path d="M128.151028,32.9828912 C128.085332,31.3457002 127.543338,30.117807 126.525048,29.2992115 C125.506758,28.480616 124.340651,28.0713182 123.026728,28.0713182 C121.45002,28.0713182 120.234641,28.5593271 119.380591,29.5353448 C118.526541,30.5113625 118.099516,31.6290602 118.099516,32.8884379 C118.099516,33.7700023 118.329453,34.6358244 118.789326,35.4859044 C119.249199,36.3359843 120.43173,37.1073532 122.336918,37.8000109 L128.249572,40.0668907 C131.994253,41.4522062 134.572827,43.3412727 135.985294,45.7340903 C137.397762,48.1269079 138.103995,50.7401166 138.103995,53.5737165 C138.103995,55.5887208 137.726242,57.4620451 136.970737,59.1936894 C136.215231,60.9253337 135.180516,62.4523292 133.866593,63.7746757 C132.55267,65.0970223 130.975963,66.1360089 129.13647,66.8916355 C127.296978,67.6472621 125.293245,68.0250754 123.125272,68.0250754 C119.05211,68.0250754 115.63591,66.7971822 112.876672,64.3413957 C111.497052,63.1449869 110.380218,61.6494759 109.526168,59.8548627 C108.672118,58.0602495 108.212245,55.9665341 108.146549,53.5737165 L117.606795,53.5737165 C117.803883,54.896063 118.28018,56.1239563 119.035686,57.2573962 C119.791192,58.3908361 121.121539,58.9575561 123.026728,58.9575561 C124.472043,58.9575561 125.769542,58.5010317 126.919225,57.5879828 C128.068908,56.674934 128.643749,55.3998141 128.643749,53.7626231 C128.643749,52.4402765 128.28242,51.3068366 127.559762,50.3623033 C126.837105,49.4177701 125.523182,48.5991746 123.617993,47.9065168 L118.789326,46.206357 C115.63591,45.072917 113.15588,43.3884994 111.349236,41.153104 C109.542592,38.9177086 108.63927,36.1943043 108.63927,32.9828912 C108.63927,30.9678869 109.033447,29.0945626 109.8218,27.3629183 C110.610154,25.6312739 111.694141,24.1357629 113.07376,22.8763852 C114.387683,21.6170076 115.931543,20.6567321 117.705339,19.9955588 C119.479135,19.3343855 121.384324,19.0037989 123.420905,19.0037989 C125.457485,19.0037989 127.34625,19.3501277 129.087198,20.0427854 C130.828146,20.7354432 132.322734,21.7114609 133.570961,22.9708386 C134.819188,24.2302163 135.80463,25.7257273 136.527288,27.4573716 C137.249945,29.1890159 137.611274,31.0308558 137.611274,32.9828912 L128.151028,32.9828912 Z" id="path-7"></path>
    </defs>
    <g id="Page-1" stroke="none" stroke-width="1" fill="none" fill-rule="evenodd">
        <mask id="mask-2" fill="white">
            <use xlink:href="#path-1"></use>
        </mask>
        <circle stroke="#979797" cx="256" cy="256" r="255.5"></circle>
        <g id="Group" mask="url(#mask-2)">
            <g transform="translate(0.000000, 16.000000)" id="xinjs-logo">
                <rect id="Rectangle-Copy" fill="#088358" x="0" y="0" width="512" height="512"></rect>
                <g id="text" transform="translate(185.981111, 359.549393)" fill-rule="nonzero">
                    <g id="Path">
                        <use fill="#FFFFFF" xlink:href="#path-3"></use>
                        <use fill="#ECF3DD" xlink:href="#path-3"></use>
                    </g>
                    <g id="Shape">
                        <use fill="#FFFFFF" xlink:href="#path-4"></use>
                        <use fill="#ECF3DD" xlink:href="#path-4"></use>
                    </g>
                    <g id="Path">
                        <use fill="#FFFFFF" xlink:href="#path-5"></use>
                        <use fill="#ECF3DD" xlink:href="#path-5"></use>
                    </g>
                    <g id="Shape">
                        <use fill="#FFFFFF" xlink:href="#path-6"></use>
                        <use fill="#ECF3DD" xlink:href="#path-6"></use>
                    </g>
                    <g id="Path">
                        <use fill="#FFFFFF" xlink:href="#path-7"></use>
                        <use fill="#ECF3DD" xlink:href="#path-7"></use>
                    </g>
                </g>
                <g id="icon" transform="translate(67.908359, 98.489191)" fill="#ECF3DD" fill-rule="nonzero">
                    <path d="M52.8821115,-0.446638298 C42.3410387,-0.446638298 34.3206572,2.77829222 28.8209671,9.68885762 C23.7795845,15.9083665 21.2588931,24.201045 21.2588931,34.7972453 L21.2588931,76.721342 C21.2588931,83.1712031 19.8839706,88.0085988 17.1341255,91.2335294 C13.9259729,94.4584599 8.19712904,96.5316295 0.176747579,97.222686 L0.176747579,117.032974 C8.19712904,117.493678 13.9259729,119.566848 17.1341255,123.252482 C19.8839706,126.016709 21.2588931,130.854104 21.2588931,137.534318 L21.2588931,179.688767 C21.2588931,190.054615 23.7795845,198.347293 28.8209671,204.566802 C34.3206572,211.247015 42.3410387,214.702298 52.8821115,214.702298 L70.9852582,214.702298 L70.9852582,194.661658 L57.4651866,194.661658 C49.2156514,194.661658 45.0908838,189.824262 45.0908838,180.610175 L45.0908838,136.152204 C45.0908838,122.331074 38.4454248,112.656282 25.154507,107.12783 C38.4454248,102.290434 45.0908838,92.6156424 45.0908838,78.1034551 L45.0908838,33.8758365 C45.0908838,24.201045 49.2156514,19.5940014 57.4651866,19.5940014 L70.9852582,19.5940014 L70.9852582,-0.446638298 L52.8821115,-0.446638298 Z" id="Path"></path>
                    <path d="M104.440068,96.347446 L104.440068,214.702298 L128.115646,214.702298 L128.115646,59.1895274 C136.390605,43.5923764 143.056544,27.3071157 148.113463,10.1043756 L125.587186,-0.446638298 C115.473347,34.8763214 99.8428687,65.6118837 79.155471,91.7600486 L87.2005701,117.449474 C93.1769294,110.568378 98.9234288,103.687282 104.440068,96.347446 Z M142.826684,28.6833349 L142.826684,51.161582 L294.304407,51.161582 L294.304407,28.6833349 L232.472074,28.6833349 C230.173474,20.4260197 226.725575,11.251225 222.128375,1.38832065 L199.142378,7.58130708 C202.590277,14.4624031 205.808317,21.3434992 208.796497,28.6833349 L142.826684,28.6833349 Z M163.514082,63.318185 L163.514082,84.6495827 L274.996169,84.6495827 L274.996169,63.318185 L163.514082,63.318185 Z M163.514082,95.6593364 L163.514082,117.220104 L274.996169,117.220104 L274.996169,95.6593364 L163.514082,95.6593364 Z M280.053089,129.835447 L158.227302,129.835447 L158.227302,214.243558 L181.67302,214.243558 L181.67302,202.775065 L256.837231,202.775065 L256.837231,214.243558 L280.053089,214.243558 L280.053089,129.835447 Z M181.67302,180.067448 L181.67302,152.084324 L256.837231,152.084324 L256.837231,180.067448 L181.67302,180.067448 Z" id="Shape"></path>
                    <path d="M305.198024,-0.446638298 L305.198024,19.5940014 L318.718096,19.5940014 C326.967631,19.5940014 331.092399,24.201045 331.092399,33.8758365 L331.092399,78.1034551 C331.092399,92.6156424 337.737858,102.290434 351.028775,107.12783 C337.737858,112.656282 331.092399,122.331074 331.092399,136.152204 L331.092399,180.610175 C331.092399,189.824262 326.967631,194.661658 318.718096,194.661658 L305.198024,194.661658 L305.198024,214.702298 L323.301171,214.702298 C333.61309,214.702298 341.633471,211.247015 347.362315,204.566802 C352.403698,198.347293 354.924389,190.054615 354.924389,179.688767 L354.924389,137.534318 C354.924389,130.854104 356.299312,126.016709 359.049157,123.252482 C362.257309,119.566848 367.757,117.493678 376.006535,117.032974 L376.006535,97.222686 C367.757,96.5316295 362.257309,94.6888121 359.278311,91.4638815 C356.299312,88.238951 354.924389,83.1712031 354.924389,76.721342 L354.924389,34.7972453 C354.924389,24.201045 352.403698,15.9083665 347.362315,9.68885762 C341.633471,2.77829222 333.61309,-0.446638298 323.301171,-0.446638298 L305.198024,-0.446638298 Z" id="Path"></path>
                </g>
            </g>
        </g>
    </g>
</svg>