<?xml version="1.0" encoding="UTF-8"?>
<svg width="256px" height="256px" viewBox="0 0 256 256" version="1.1" xmlns="http://www.w3.org/2000/svg" xmlns:xlink="http://www.w3.org/1999/xlink">
    <title>xinjs-logo</title>
    <defs>
        <circle id="path-1" cx="128" cy="128" r="128"></circle>
        <polygon id="path-3" points="0 47.7337284 7.69323236 30.3431539 0.369275153 13.6911752 7.01622791 13.6911752 10.893617 23.360066 14.7710061 13.6911752 21.4179589 13.6911752 13.97091 30.3431539 21.787234 47.7337284 15.1402813 47.7337284 10.893617 37.3262417 6.64695276 47.7337284"></polygon>
        <path d="M24.5106383,47.7337284 L24.5106383,14.7660019 L31.3191489,14.7660019 L31.3191489,47.7337284 L24.5106383,47.7337284 Z M27.8526858,9.50427245 L23.1627574,4.81434404 L27.9771014,6.21724894e-15 L32.6670298,4.68992841 L27.8526858,9.50427245 Z" id="path-4"></path>
        <path d="M35.4042553,47.7337284 L35.4042553,14.0893337 L42.2350889,14.0893337 L42.2350889,17.3409616 L42.3690269,17.3409616 C43.0833624,16.2792056 43.9427973,15.4054688 44.9473317,14.7197514 C45.9518661,14.0340339 47.2354377,13.6911752 48.7980467,13.6911752 C49.6463202,13.6911752 50.4945937,13.8349547 51.3428671,14.1225136 C52.1911406,14.4100725 52.9501221,14.8856507 53.6198116,15.5492483 C54.2895012,16.2128458 54.8252529,17.0644626 55.2270666,18.1040988 C55.6288804,19.1437349 55.8297872,20.4156301 55.8297872,21.9197845 L55.8297872,47.7337284 L48.9989536,47.7337284 L48.9989536,24.4414551 C48.9989536,23.2027398 48.7087548,22.2294634 48.1283572,21.521626 C47.5479595,20.8137887 46.7220091,20.45987 45.6505058,20.45987 C44.3557726,20.45987 43.4628532,20.8580285 42.9717475,21.6543455 C42.4806418,22.4506626 42.2350889,23.6008983 42.2350889,25.1050527 L42.2350889,47.7337284 L35.4042553,47.7337284 Z" id="path-5"></path>
        <path d="M60.029736,14.8301343 L66.7234043,14.8301343 L66.7234043,51.4847203 C66.7234043,54.7516174 65.6952918,57.2126799 63.6390669,58.8679078 C61.582842,60.5231357 58.9797488,61.3507497 55.8297872,61.3507497 L55.8297872,55.0783071 C57.4485175,55.0783071 58.5641289,54.6645002 59.1766214,53.8368862 C59.5266171,53.3577413 59.7563018,52.7370309 59.8656755,51.9747549 C59.9750491,51.2124789 60.029736,50.2215201 60.029736,49.0018785 L60.029736,14.8301343 Z M63.366247,9.49090628 L58.653755,4.77841422 L63.3868932,0.045275985 L68.0993853,4.75776804 L63.366247,9.49090628 Z" id="path-6"></path>
        <path d="M83.0862262,23.3988782 C83.0414334,22.26194 82.6718925,21.4092364 81.9776036,20.8407673 C81.2833147,20.2722982 80.4882419,19.9880636 79.5923852,19.9880636 C78.5173572,19.9880636 77.6886898,20.3269587 77.106383,21.0047488 C76.5240761,21.6825388 76.2329227,22.4587178 76.2329227,23.3332856 C76.2329227,23.9454831 76.3896976,24.5467485 76.7032475,25.1370818 C77.0167973,25.7274151 77.8230683,26.2630879 79.1220605,26.7441002 L83.1534155,28.3183223 C85.7066069,29.280347 87.4647256,30.5921987 88.4277716,32.2538776 C89.3908175,33.9155565 89.8723404,35.7302848 89.8723404,37.6980624 C89.8723404,39.097371 89.6147816,40.3982906 89.0996641,41.6008214 C88.5845465,42.8033522 87.8790594,43.8637657 86.9832027,44.7820619 C86.087346,45.7003582 85.012318,46.4218766 83.7581187,46.9466173 C82.5039194,47.471358 81.137738,47.7337284 79.6595745,47.7337284 C76.8824188,47.7337284 74.5531915,46.8810247 72.6718925,45.1756175 C71.731243,44.344778 70.9697648,43.3062287 70.387458,42.0599695 C69.8051512,40.8137103 69.4916013,39.3597413 69.4468085,37.6980624 L75.8969765,37.6980624 C76.031355,38.6163586 76.356103,39.4690623 76.8712206,40.2561733 C77.3863382,41.0432844 78.2933931,41.4368399 79.5923852,41.4368399 C80.5778275,41.4368399 81.462486,41.1198091 82.2463606,40.4857474 C83.0302352,39.8516857 83.4221725,38.9661858 83.4221725,37.8292476 C83.4221725,36.9109514 83.1758119,36.1238403 82.6830907,35.4679144 C82.1903695,34.8119885 81.2945129,34.2435194 79.9955207,33.7625071 L76.7032475,32.5818405 C74.5531915,31.7947295 72.862262,30.624995 71.6304591,29.0726371 C70.3986562,27.5202792 69.7827548,25.6290262 69.7827548,23.3988782 C69.7827548,21.9995697 70.0515118,20.69865 70.5890258,19.4961192 C71.1265398,18.2935885 71.8656215,17.2550391 72.806271,16.3804713 C73.7021277,15.5059035 74.7547592,14.8390455 75.9641657,14.3798974 C77.1735722,13.9207493 78.4725644,13.6911752 79.8611422,13.6911752 C81.24972,13.6911752 82.537514,13.9316813 83.7245241,14.4126937 C84.9115342,14.893706 85.9305711,15.5714961 86.7816349,16.4460639 C87.6326988,17.3206317 88.3045913,18.359181 88.7973124,19.5617118 C89.2900336,20.7642426 89.5363942,22.0432981 89.5363942,23.3988782 L83.0862262,23.3988782 Z" id="path-7"></path>
    </defs>
    <g id="layout" stroke="none" stroke-width="1" fill="none" fill-rule="evenodd">
        <g id="Light-Version">
            <mask id="mask-2" fill="white">
                <use xlink:href="#path-1"></use>
            </mask>
            <use id="Oval" fill="#ECF3DD" xlink:href="#path-1"></use>
            <rect id="Rectangle" fill="#ECF3DD" mask="url(#mask-2)" x="-5" y="-5" width="261" height="261"></rect>
            <g id="xinjs-logo" mask="url(#mask-2)">
                <g transform="translate(0.000000, 16.000000)">
                    <rect id="Rectangle-Copy" fill="#ECF3DD" x="0" y="0" width="256" height="256"></rect>
                    <g id="text" stroke-width="1" fill="none" transform="translate(83.063830, 157.883293)">
                        <g id="Path" fill-rule="nonzero">
                            <use fill="#FFFFFF" xlink:href="#path-3"></use>
                            <use fill="#088358" xlink:href="#path-3"></use>
                        </g>
                        <g id="Shape" fill-rule="nonzero">
                            <use fill="#FFFFFF" xlink:href="#path-4"></use>
                            <use fill="#088358" xlink:href="#path-4"></use>
                        </g>
                        <g id="Path" fill-rule="nonzero">
                            <use fill="#FFFFFF" xlink:href="#path-5"></use>
                            <use fill="#088358" xlink:href="#path-5"></use>
                        </g>
                        <g id="Shape" fill-rule="nonzero">
                            <use fill="#FFFFFF" xlink:href="#path-6"></use>
                            <use fill="#088358" xlink:href="#path-6"></use>
                        </g>
                        <g id="Path" fill-rule="nonzero">
                            <use fill="#FFFFFF" xlink:href="#path-7"></use>
                            <use fill="#088358" xlink:href="#path-7"></use>
                        </g>
                    </g>
                    <g id="icon" stroke-width="1" fill="none" transform="translate(33.954179, 36.989277)">
                        <path d="M26.4410557,-0.223319149 C21.1705194,-0.223319149 17.1603286,1.38914611 14.4104835,4.84442881 C11.8897922,7.95418324 10.6294466,12.1005225 10.6294466,17.3986226 L10.6294466,38.360671 C10.6294466,41.5856015 9.9419853,44.0042994 8.56706277,45.6167647 C6.96298647,47.2292299 4.09856452,48.2658148 0.0883737894,48.611343 L0.0883737894,58.5164868 C4.09856452,58.7468389 6.96298647,59.7834238 8.56706277,61.6262412 C9.9419853,63.0083543 10.6294466,65.4270522 10.6294466,68.7671588 L10.6294466,89.8443833 C10.6294466,95.0273073 11.8897922,99.1736465 14.4104835,102.283401 C17.1603286,105.623508 21.1705194,107.351149 26.4410557,107.351149 L35.4926291,107.351149 L35.4926291,97.3308291 L28.7325933,97.3308291 C24.6078257,97.3308291 22.5454419,94.9121312 22.5454419,90.3050876 L22.5454419,68.0761022 C22.5454419,61.1655368 19.2227124,56.3281411 12.5772535,53.5639149 C19.2227124,51.145217 22.5454419,46.3078212 22.5454419,39.0517276 L22.5454419,16.9379183 C22.5454419,12.1005225 24.6078257,9.79700068 28.7325933,9.79700068 L35.4926291,9.79700068 L35.4926291,-0.223319149 L26.4410557,-0.223319149 Z" id="Path" fill="#088358" fill-rule="nonzero"></path>
                        <path d="M52.2200341,48.173723 L52.2200341,107.351149 L64.0578228,107.351149 L64.0578228,29.5947637 C68.1953023,21.7961882 71.528272,13.6535579 74.0567317,5.05218781 L62.7935929,-0.223319149 C57.7366735,17.4381607 49.9214343,32.8059418 39.5777355,45.8800243 L43.600285,58.7247369 C46.5884647,55.2841889 49.4617144,51.8436409 52.2200341,48.173723 Z M71.413342,14.3416675 L71.413342,25.580791 L147.152204,25.580791 L147.152204,14.3416675 L116.236037,14.3416675 C115.086737,10.2130098 113.362787,5.62561248 111.064188,0.694160323 L99.5711888,3.79065354 C101.295139,7.23120156 102.904158,10.6717496 104.398248,14.3416675 L71.413342,14.3416675 Z M81.7570408,31.6590925 L81.7570408,42.3247914 L137.498085,42.3247914 L137.498085,31.6590925 L81.7570408,31.6590925 Z M81.7570408,47.8296682 L81.7570408,58.610052 L137.498085,58.610052 L137.498085,47.8296682 L81.7570408,47.8296682 Z M140.026544,64.9177234 L79.1136511,64.9177234 L79.1136511,107.121779 L90.8365098,107.121779 L90.8365098,101.387532 L128.418616,101.387532 L128.418616,107.121779 L140.026544,107.121779 L140.026544,64.9177234 Z M90.8365098,90.0337239 L90.8365098,76.042162 L128.418616,76.042162 L128.418616,90.0337239 L90.8365098,90.0337239 Z" id="Shape" fill="#088358" fill-rule="nonzero"></path>
                        <path d="M152.599012,-0.223319149 L152.599012,9.79700068 L159.359048,9.79700068 C163.483816,9.79700068 165.546199,12.1005225 165.546199,16.9379183 L165.546199,39.0517276 C165.546199,46.3078212 168.868929,51.145217 175.514388,53.5639149 C168.868929,56.3281411 165.546199,61.1655368 165.546199,68.0761022 L165.546199,90.3050876 C165.546199,94.9121312 163.483816,97.3308291 159.359048,97.3308291 L152.599012,97.3308291 L152.599012,107.351149 L161.650585,107.351149 C166.806545,107.351149 170.816736,105.623508 173.681158,102.283401 C176.201849,99.1736465 177.462195,95.0273073 177.462195,89.8443833 L177.462195,68.7671588 C177.462195,65.4270522 178.149656,63.0083543 179.524578,61.6262412 C181.128655,59.7834238 183.8785,58.7468389 188.003267,58.5164868 L188.003267,48.611343 C183.8785,48.2658148 181.128655,47.344406 179.639155,45.7319408 C178.149656,44.1194755 177.462195,41.5856015 177.462195,38.360671 L177.462195,17.3986226 C177.462195,12.1005225 176.201849,7.95418324 173.681158,4.84442881 C170.816736,1.38914611 166.806545,-0.223319149 161.650585,-0.223319149 L152.599012,-0.223319149 Z" id="Path" fill="#088358" fill-rule="nonzero"></path>
                    </g>
                </g>
            </g>
        </g>
    </g>
</svg>