<?xml version="1.0" encoding="utf-8"?>
<svg x="0px" y="0px" width="512px" height="512px" viewBox="0 0 512 512" xmlns="http://www.w3.org/2000/svg" xmlns:xlink="http://www.w3.org/1999/xlink">
  <!--Generated by AMDN-->
  <g id="Color">
    <path id="Path" style="fill:#505050;fill-opacity:1;fill-rule:evenodd;opacity:1;stroke:none;" d="M2.49258e-11,97.2342 C2.49258e-11,28.497,28.4969,1.52597e-05,97.2342,1.52597e-05 C97.2342,1.52597e-05,414.766,1.52597e-05,414.766,1.52597e-05 C483.503,1.52597e-05,512,28.497,512,97.2342 C512,97.2342,512,414.766,512,414.766 C512,483.503,483.503,512,414.766,512 C414.766,512,97.2342,512,97.2342,512 C28.4969,512,2.49258e-11,483.503,2.49258e-11,414.766 C2.49258e-11,414.766,2.49258e-11,97.2342,2.49258e-11,97.2342 z"/>
    <g id="Alr3_Logo_Color">
      <path id="Path 260" style="fill:#ff1c24;fill-opacity:1;fill-rule:nonzero;opacity:1;stroke:none;" d="M88.7992,89.9832 C95.4786,92.707,92.9019,91.0064,96.9739,94.3316 C96.9739,94.3316,149.129,146.488,149.129,146.488 C149.129,146.488,195.839,99.776,195.839,99.776 C200.294,95.3225,200.294,95.3225,201.284,94.3316 C205.186,90.5554,208.065,90.1513,213.23,89.9735 C213.23,89.9735,215.509,89.9832,215.509,89.9832 C222.188,92.707,219.612,91.0064,223.684,94.3316 C229.868,100.518,229.868,110.547,223.684,116.731 C222.693,117.721,222.693,117.721,218.239,122.176 C218.239,122.176,171.529,168.886,171.529,168.886 C171.529,168.886,223.684,221.041,223.684,221.041 C229.868,227.228,229.868,237.256,223.684,243.441 C217.497,249.628,207.468,249.628,201.284,243.441 C201.284,243.441,149.129,191.286,149.129,191.286 C149.129,191.286,124.817,215.597,124.817,215.597 C124.817,215.597,102.418,237.997,102.418,237.997 C97.9632,242.452,97.9632,242.452,96.9739,243.441 C90.7875,249.628,80.7587,249.628,74.574,243.441 C68.3892,237.256,68.3892,227.228,74.574,221.041 C75.5633,220.052,75.5633,220.052,80.0184,215.597 C80.0184,215.597,126.729,168.886,126.729,168.886 C126.729,168.886,74.574,116.731,74.574,116.731 C68.3892,110.547,68.3892,100.518,74.574,94.3316 C78.4762,90.5554,81.3536,90.1513,86.52,89.9735 C86.52,89.9735,88.7992,89.9832,88.7992,89.9832 z"/>
      <path id="Path 262" style="fill:#088357;fill-opacity:1;fill-rule:nonzero;opacity:1;stroke:none;" d="M308.262,89.9735 C308.262,89.9735,310.542,89.9832,310.542,89.9832 C317.221,92.707,314.644,91.0064,318.715,94.3316 C319.706,95.3225,319.706,95.3225,324.161,99.776 C324.161,99.776,439.98,215.597,439.98,215.597 C444.435,220.052,444.435,220.052,445.426,221.041 C451.611,227.228,451.611,237.256,445.426,243.441 C439.24,249.628,429.211,249.628,423.026,243.441 C423.026,243.441,296.316,116.731,296.316,116.731 C290.13,110.547,290.13,100.518,296.316,94.3316 C300.217,90.5554,303.096,90.1513,308.262,89.9735 z"/>
      <path id="Path 263" style="fill:#8cc63f;fill-opacity:1;fill-rule:nonzero;opacity:1;stroke:none;" d="M260,89.6938 C268.747,89.6938,275.839,96.7838,275.839,105.532 C275.839,231.814,275.851,189.578,275.839,232.242 C275.839,240.989,268.747,248.081,260,248.081 C251.252,248.081,244.161,240.989,244.161,232.242 C244.161,232.242,244.161,105.532,244.161,105.532 C244.161,96.7838,251.252,89.6938,260,89.6938 z"/>
      <path id="Path 265" style="fill:#3da8f4;fill-opacity:1;fill-rule:nonzero;opacity:1;stroke:none;" d="M308.262,89.9735 C308.262,89.9735,310.542,89.9832,310.542,89.9832 C317.221,92.707,314.644,91.0064,318.715,94.3316 C319.706,95.3225,319.706,95.3225,324.161,99.776 C324.161,99.776,439.98,215.597,439.98,215.597 C444.435,220.052,444.435,220.052,445.426,221.041 C451.611,227.228,451.611,237.256,445.426,243.441 C439.24,249.628,429.211,249.628,423.026,243.441 C423.026,243.441,296.316,116.731,296.316,116.731 C290.13,110.547,290.13,100.518,296.316,94.3316 C300.217,90.5554,303.096,90.1513,308.262,89.9735 z"/>
      <path id="Path 266" style="fill:#ff1c24;fill-opacity:1;fill-rule:nonzero;opacity:1;stroke:none;" d="M213.23,264.2 C213.23,264.2,215.509,264.208,215.509,264.208 C222.188,266.932,219.612,265.233,223.684,268.558 C229.868,274.743,229.868,284.772,223.684,290.957 C223.008,291.632,222.332,292.308,221.658,292.982 C221.658,292.982,190.589,323.851,190.589,323.851 C190.589,323.851,189.813,324.627,189.813,324.627 C189.813,324.627,172.799,341.678,172.799,341.678 C172.799,341.678,171.448,343.032,171.448,343.032 C171.448,343.032,223.684,395.268,223.684,395.268 C229.868,401.453,229.868,411.482,223.684,417.666 C217.497,423.853,207.468,423.853,201.284,417.666 C200.294,416.677,200.294,416.677,195.839,412.222 C195.839,412.222,149.074,365.457,149.074,365.457 C149.074,365.457,128.113,386.463,128.113,386.463 C125.295,389.287,122.477,392.11,119.662,394.932 C119.662,394.932,96.9739,417.666,96.9739,417.666 C90.7875,423.853,80.7587,423.853,74.574,417.666 C68.3892,411.482,68.3892,401.453,74.574,395.268 C74.574,395.268,126.729,343.112,126.729,343.112 C126.729,343.112,80.0184,296.401,80.0184,296.401 C78.3146,294.699,76.6124,292.995,74.9086,291.293 C74.9086,291.293,74.574,290.957,74.574,290.957 C68.3892,284.772,68.3892,274.743,74.574,268.558 C78.4762,264.781,81.3536,264.377,86.52,264.2 C86.52,264.2,88.7992,264.208,88.7992,264.208 C95.4786,266.932,92.9019,265.233,96.9739,268.558 C96.9739,268.558,149.129,320.713,149.129,320.713 C166.519,303.333,183.898,285.942,201.284,268.558 C205.186,264.781,208.065,264.377,213.23,264.2 z M213.374,272.12 C210.583,272.136,208.949,272.238,206.883,274.158 C202.024,279.017,198.136,282.907,189.389,291.655 C189.389,291.655,189.388,291.655,189.388,291.655 C172.061,308.987,164.358,316.69,154.727,326.315 C151.634,329.405,146.622,329.405,143.529,326.313 C143.529,326.313,91.6443,274.43,91.6443,274.43 C91.1561,274.029,90.6711,273.623,90.1846,273.22 C89.2033,272.878,88.2334,272.506,87.2684,272.123 C87.2684,272.123,86.6638,272.12,86.6638,272.12 C83.8737,272.136,82.2394,272.238,80.1735,274.158 C77.0812,277.25,77.0812,282.265,80.1752,285.359 C80.1752,285.359,80.5114,285.695,80.5114,285.695 C80.5114,285.695,80.5098,285.693,80.5098,285.693 C82.4464,287.63,84.0661,289.25,85.6179,290.802 C85.6179,290.802,132.328,337.512,132.328,337.512 C135.422,340.606,135.422,345.619,132.328,348.713 C132.328,348.713,80.1735,400.868,80.1735,400.868 C77.0812,403.96,77.0812,408.975,80.1735,412.067 C83.2659,415.161,88.2803,415.161,91.3678,412.073 C91.3678,412.073,114.056,389.339,114.056,389.339 C115.179,388.212,116.078,387.312,118.102,385.283 C120.303,383.077,121.283,382.095,122.507,380.87 C122.507,380.87,143.468,359.864,143.468,359.864 C146.559,356.765,151.578,356.761,154.673,359.857 C154.673,359.857,201.439,406.623,201.439,406.623 C205.656,410.84,204.113,409.295,206.073,411.257 C206.717,411.9,206.447,411.63,206.883,412.067 C209.976,415.161,214.99,415.161,218.084,412.067 C221.176,408.975,221.176,403.96,218.082,400.868 C218.082,400.868,165.848,348.632,165.848,348.632 C162.758,345.543,162.754,340.533,165.842,337.439 C165.842,337.439,167.193,336.085,167.193,336.085 C167.193,336.085,184.213,319.027,184.213,319.027 C184.213,319.027,185.007,318.234,185.007,318.234 C185.007,318.234,216.059,287.383,216.059,287.383 C217.07,286.369,217.07,286.369,218.084,285.357 C221.159,281.885,221.094,277.844,218.202,274.303 C217.766,273.945,217.331,273.581,216.894,273.22 C215.915,272.878,214.943,272.506,213.978,272.123 C213.978,272.123,213.374,272.12,213.374,272.12 z"/>
      <path id="Path 267" style="fill:#088357;fill-opacity:1;fill-rule:nonzero;opacity:1;stroke:none;" d="M260,263.919 C268.747,263.919,275.839,271.011,275.839,279.758 C275.839,279.758,275.839,406.467,275.839,406.467 C275.839,415.216,268.747,422.306,260,422.306 C251.252,422.306,244.161,415.216,244.161,406.467 C244.161,406.467,244.161,279.758,244.161,279.758 C244.161,271.011,251.252,263.919,260,263.919 z M260,271.838 C255.626,271.838,252.081,275.385,252.081,279.758 C252.081,279.758,252.081,406.467,252.081,406.467 C252.081,410.842,255.626,414.387,260,414.387 C264.374,414.387,267.919,410.842,267.919,406.467 C267.919,406.467,267.919,279.758,267.919,279.758 C267.919,275.385,264.374,271.838,260,271.838 z"/>
      <path id="Path 268" style="fill:#088357;fill-opacity:1;fill-rule:nonzero;opacity:1;stroke:none;" d="M434.972,264.2 C434.972,264.2,437.251,264.208,437.251,264.208 C443.931,266.932,441.354,265.233,445.426,268.558 C451.611,274.743,451.611,284.772,445.426,290.957 C444.435,291.948,444.435,291.948,439.98,296.403 C399.403,336.667,359.142,377.249,318.715,417.666 C312.53,423.853,302.501,423.853,296.316,417.666 C290.13,411.482,290.13,401.453,296.316,395.268 C296.99,394.592,297.666,393.918,298.342,393.243 C339.663,351.44,381.469,310.124,423.026,268.558 C426.927,264.781,429.806,264.377,434.972,264.2 z M435.114,272.12 C432.326,272.136,430.692,272.238,428.626,274.158 C428.372,274.412,428.372,274.412,428.152,274.632 C428.152,274.632,428.152,274.632,428.152,274.632 C427.533,275.251,427.158,275.627,423.181,279.602 C423.181,279.602,307.36,395.423,307.36,395.423 C303.385,399.4,303.009,399.775,302.39,400.394 C302.39,400.394,302.39,400.394,302.39,400.394 C302.17,400.614,302.17,400.614,301.916,400.868 C298.824,403.96,298.824,408.975,301.916,412.067 C305.008,415.161,310.023,415.161,313.117,412.067 C313.37,411.813,313.37,411.813,313.59,411.593 C315.247,409.936,316.904,408.279,318.56,406.623 C318.56,406.623,434.38,290.802,434.38,290.802 C434.38,290.802,435.711,289.473,435.711,289.473 C435.711,289.473,439.825,285.357,439.825,285.357 C442.901,281.885,442.836,277.844,439.944,274.303 C439.506,273.945,439.073,273.581,438.637,273.22 C437.656,272.878,436.686,272.506,435.721,272.123 C435.721,272.123,435.114,272.12,435.114,272.12 z"/>
      <path id="Path 269" style="fill:#8cc63f;fill-opacity:1;fill-rule:nonzero;opacity:1;stroke:none;" d="M260,263.919 C268.747,263.919,275.839,271.011,275.839,279.758 C275.839,279.758,275.839,406.467,275.839,406.467 C275.839,415.216,268.747,422.306,260,422.306 C251.252,422.306,244.161,415.216,244.161,406.467 C244.161,406.467,244.161,279.758,244.161,279.758 C244.161,271.011,251.252,263.919,260,263.919 z M260,271.838 C255.626,271.838,252.081,275.385,252.081,279.758 C252.081,279.758,252.081,406.467,252.081,406.467 C252.081,410.842,255.626,414.387,260,414.387 C264.374,414.387,267.919,410.842,267.919,406.467 C267.919,406.467,267.919,279.758,267.919,279.758 C267.919,275.385,264.374,271.838,260,271.838 z"/>
      <path id="Path 270" style="fill:#3da8f4;fill-opacity:1;fill-rule:nonzero;opacity:1;stroke:none;" d="M434.972,264.2 C434.972,264.2,437.251,264.208,437.251,264.208 C443.931,266.932,441.354,265.233,445.426,268.558 C451.611,274.743,451.611,284.772,445.426,290.957 C444.435,291.948,444.435,291.948,439.98,296.403 C399.403,336.667,359.142,377.249,318.715,417.666 C312.53,423.853,302.501,423.853,296.316,417.666 C290.13,411.482,290.13,401.453,296.316,395.268 C296.99,394.592,297.666,393.918,298.342,393.243 C339.663,351.44,381.469,310.124,423.026,268.558 C426.927,264.781,429.806,264.377,434.972,264.2 z M435.114,272.12 C432.326,272.136,430.692,272.238,428.626,274.158 C428.372,274.412,428.372,274.412,428.152,274.632 C428.152,274.632,428.152,274.632,428.152,274.632 C427.533,275.251,427.158,275.627,423.181,279.602 C423.181,279.602,307.36,395.423,307.36,395.423 C303.385,399.4,303.009,399.775,302.39,400.394 C302.39,400.394,302.39,400.394,302.39,400.394 C302.17,400.614,302.17,400.614,301.916,400.868 C298.824,403.96,298.824,408.975,301.916,412.067 C305.008,415.161,310.023,415.161,313.117,412.067 C313.37,411.813,313.37,411.813,313.59,411.593 C315.247,409.936,316.904,408.279,318.56,406.623 C318.56,406.623,434.38,290.802,434.38,290.802 C434.38,290.802,435.711,289.473,435.711,289.473 C435.711,289.473,439.825,285.357,439.825,285.357 C442.901,281.885,442.836,277.844,439.944,274.303 C439.506,273.945,439.073,273.581,438.637,273.22 C437.656,272.878,436.686,272.506,435.721,272.123 C435.721,272.123,435.114,272.12,435.114,272.12 z"/>
    </g>
  </g>
</svg>
