<?xml version="1.0" encoding="utf-8"?>
<svg x="0px" y="0px" width="48px" height="48px" viewBox="0 0 48 48" xmlns="http://www.w3.org/2000/svg" xmlns:xlink="http://www.w3.org/1999/xlink">
  <!--Generated by AMDN-->
  <g id="Layer 1">
    <g id="Group">
      <path id="Path" style="fill:#ed247b;fill-opacity:1;fill-rule:evenodd;opacity:1;stroke:none;" d="M1,9 C1,4.58172,4.58172,1,9,1 C9,1,39,1,39,1 C43.4183,1,47,4.58172,47,9 C47,9,47,39,47,39 C47,43.4183,43.4183,47,39,47 C39,47,9,47,9,47 C4.58172,47,1,43.4183,1,39 C1,39,1,9,1,9 z"/>
      <g id="Group">
        <path id="Path" style="fill:#9e9e9e;fill-opacity:1;fill-rule:nonzero;opacity:1;stroke:#000000;stroke-linecap:round;stroke-linejoin:round;stroke-miterlimit:10;stroke-opacity:1;stroke-width:2;" d="M16,29 C16,29,10,31,10,35 C10,39,16,39,16,39"/>
        <path id="Path Copy" style="fill:#9e9e9e;fill-opacity:1;fill-rule:nonzero;opacity:1;stroke:#000000;stroke-linecap:round;stroke-linejoin:round;stroke-miterlimit:10;stroke-opacity:1;stroke-width:2;" d="M32.0002,29 C32.0002,29,38.0002,31,38.0002,35 C38.0002,39,32.0002,39,32.0002,39"/>
        <path id="Path" style="fill:#ffffff;fill-opacity:1;fill-rule:evenodd;opacity:1;stroke:#000000;stroke-linecap:round;stroke-linejoin:round;stroke-miterlimit:10;stroke-opacity:1;stroke-width:2;" d="M9,10.1818 C9,7.87226,10.7909,6,13,6 C13,6,35,6,35,6 C37.2091,6,39,7.87226,39,10.1818 C39,10.1818,39,24.8182,39,24.8182 C39,27.1277,37.2091,29,35,29 C35,29,13,29,13,29 C10.7909,29,9,27.1277,9,24.8182 C9,24.8182,9,10.1818,9,10.1818 z"/>
        <path id="Path" style="fill:#ffffff;fill-opacity:1;fill-rule:nonzero;opacity:1;stroke:#000000;stroke-linecap:round;stroke-linejoin:round;stroke-miterlimit:10;stroke-opacity:1;stroke-width:2;" d="M24,11 C24,11,24,23,24,23"/>
        <path id="Path" style="fill:#ffffff;fill-opacity:1;fill-rule:nonzero;opacity:1;stroke:#000000;stroke-linecap:round;stroke-linejoin:round;stroke-miterlimit:10;stroke-opacity:1;stroke-width:2;" d="M28,15 C28,15,28,17,28,17"/>
        <path id="Path Copy" style="fill:#ffffff;fill-opacity:1;fill-rule:nonzero;opacity:1;stroke:#000000;stroke-linecap:round;stroke-linejoin:round;stroke-miterlimit:10;stroke-opacity:1;stroke-width:2;" d="M20,15 C20,15,20,17,20,17"/>
        <path id="Path" style="fill:none;opacity:1;stroke:#000000;stroke-linecap:round;stroke-linejoin:round;stroke-miterlimit:10;stroke-opacity:1;stroke-width:2;" d="M32,43 C32,43,30,41,30,41 C30,41,28,43,28,43"/>
        <path id="Path Copy" style="fill:none;opacity:1;stroke:#000000;stroke-linecap:round;stroke-linejoin:round;stroke-miterlimit:10;stroke-opacity:1;stroke-width:2;" d="M20,43 C20,43,18,41,18,41 C18,41,16,43,16,43"/>
        <path id="Path" style="fill:#e4e4e4;fill-opacity:1;fill-rule:evenodd;opacity:1;stroke:#000000;stroke-linecap:round;stroke-linejoin:round;stroke-miterlimit:10;stroke-opacity:1;stroke-width:2;" d="M16,29 C16,29,32,29,32,29 C32,29,32,39,32,39 C32,39,16,39,16,39 C16,39,16,29,16,29 z"/>
      </g>
    </g>
  </g>
</svg>
