<?xml version="1.0" encoding="utf-8"?>
<svg x="0px" y="0px" width="512px" height="512px" viewBox="0 0 512 512" xmlns="http://www.w3.org/2000/svg" xmlns:xlink="http://www.w3.org/1999/xlink">
  <!--Generated by AMDN-->
  <g id="Color">
    <path id="Path" style="fill:#505050;fill-opacity:1;fill-rule:evenodd;opacity:1;stroke:none;" d="M2.49258e-11,97.2342 C2.49258e-11,28.497,28.4969,1.52597e-05,97.2342,1.52597e-05 C97.2342,1.52597e-05,414.766,1.52597e-05,414.766,1.52597e-05 C483.503,1.52597e-05,512,28.497,512,97.2342 C512,97.2342,512,414.766,512,414.766 C512,483.503,483.503,512,414.766,512 C414.766,512,97.2342,512,97.2342,512 C28.4969,512,2.49258e-11,483.503,2.49258e-11,414.766 C2.49258e-11,414.766,2.49258e-11,97.2342,2.49258e-11,97.2342 z"/>
    <g id="Alr3_Logo_Color">
      <path id="Path 260" style="fill:#ff1c24;fill-opacity:1;fill-rule:nonzero;opacity:1;stroke:none;" d="M62.9836,150.852 C67.2141,152.577,65.5821,151.5,68.1611,153.606 C68.1611,153.606,101.194,186.64,101.194,186.64 C101.194,186.64,130.778,157.054,130.778,157.054 C133.6,154.234,133.6,154.234,134.227,153.606 C136.698,151.214,138.522,150.958,141.793,150.846 C141.793,150.846,143.236,150.852,143.236,150.852 C147.467,152.577,145.835,151.5,148.414,153.606 C152.331,157.524,152.331,163.876,148.414,167.793 C147.786,168.42,147.786,168.42,144.966,171.241 C144.966,171.241,115.381,200.826,115.381,200.826 C115.381,200.826,148.414,233.859,148.414,233.859 C152.331,237.777,152.331,244.129,148.414,248.046 C144.496,251.964,138.144,251.964,134.227,248.046 C134.227,248.046,101.194,215.013,101.194,215.013 C101.194,215.013,85.7955,230.41,85.7955,230.41 C85.7955,230.41,71.6094,244.598,71.6094,244.598 C68.7877,247.419,68.7877,247.419,68.1611,248.046 C64.2429,251.964,57.8911,251.964,53.9739,248.046 C50.0568,244.129,50.0568,237.777,53.9739,233.859 C54.6005,233.232,54.6005,233.232,57.4222,230.41 C57.4222,230.41,87.0067,200.826,87.0067,200.826 C87.0067,200.826,53.9739,167.793,53.9739,167.793 C50.0568,163.876,50.0568,157.524,53.9739,153.606 C56.4455,151.214,58.2679,150.958,61.54,150.846 C61.54,150.846,62.9836,150.852,62.9836,150.852 z"/>
      <path id="Path 262" style="fill:#088357;fill-opacity:1;fill-rule:nonzero;opacity:1;stroke:none;" d="M201.982,150.846 C201.982,150.846,203.426,150.852,203.426,150.852 C207.656,152.577,206.025,151.5,208.603,153.606 C209.23,154.234,209.23,154.234,212.052,157.054 C212.052,157.054,285.407,230.41,285.407,230.41 C288.229,233.232,288.229,233.232,288.856,233.859 C292.773,237.777,292.773,244.129,288.856,248.046 C284.938,251.964,278.586,251.964,274.669,248.046 C274.669,248.046,194.416,167.793,194.416,167.793 C190.498,163.876,190.498,157.524,194.416,153.606 C196.887,151.214,198.71,150.958,201.982,150.846 z"/>
      <path id="Path 263" style="fill:#8cc63f;fill-opacity:1;fill-rule:nonzero;opacity:1;stroke:none;" d="M171.415,150.669 C176.955,150.669,181.447,155.159,181.447,160.7 C181.447,240.681,181.455,213.931,181.447,240.953 C181.447,246.493,176.955,250.984,171.415,250.984 C165.874,250.984,161.384,246.493,161.384,240.953 C161.384,240.953,161.384,160.7,161.384,160.7 C161.384,155.159,165.874,150.669,171.415,150.669 z"/>
      <path id="Path 264" style="fill:#ff931d;fill-opacity:1;fill-rule:nonzero;opacity:1;stroke:none;" d="M336.936,230.921 C342.476,230.921,346.968,235.412,346.968,240.953 C346.968,240.953,346.968,351.3,346.968,351.3 C346.968,356.841,342.476,361.331,336.936,361.331 C331.396,361.331,326.905,356.841,326.905,351.3 C326.905,351.3,326.905,240.953,326.905,240.953 C326.905,235.412,331.396,230.921,336.936,230.921 z M336.936,235.937 C334.166,235.937,331.92,238.182,331.92,240.953 C331.92,240.953,331.92,351.3,331.92,351.3 C331.92,354.07,334.166,356.315,336.936,356.315 C339.707,356.315,341.952,354.07,341.952,351.3 C341.952,351.3,341.952,240.953,341.952,240.953 C341.719,237.945,340.515,237.119,337.947,236.038 C337.947,236.038,336.936,235.937,336.936,235.937 z"/>
      <path id="Path 265" style="fill:#3da8f4;fill-opacity:1;fill-rule:nonzero;opacity:1;stroke:none;" d="M201.982,150.846 C201.982,150.846,203.426,150.852,203.426,150.852 C207.656,152.577,206.025,151.5,208.603,153.606 C209.23,154.234,209.23,154.234,212.052,157.054 C212.052,157.054,285.407,230.41,285.407,230.41 C288.229,233.232,288.229,233.232,288.856,233.859 C292.773,237.777,292.773,244.129,288.856,248.046 C284.938,251.964,278.586,251.964,274.669,248.046 C274.669,248.046,194.416,167.793,194.416,167.793 C190.498,163.876,190.498,157.524,194.416,153.606 C196.887,151.214,198.71,150.958,201.982,150.846 z"/>
      <path id="Path 266" style="fill:#ff1c24;fill-opacity:1;fill-rule:nonzero;opacity:1;stroke:none;" d="M141.793,261.194 C141.793,261.194,143.236,261.199,143.236,261.199 C147.467,262.924,145.835,261.848,148.414,263.954 C152.331,267.871,152.331,274.223,148.414,278.14 C147.986,278.568,147.558,278.996,147.131,279.423 C147.131,279.423,127.453,298.974,127.453,298.974 C127.453,298.974,126.962,299.465,126.962,299.465 C126.962,299.465,116.186,310.265,116.186,310.265 C116.186,310.265,115.33,311.123,115.33,311.123 C115.33,311.123,148.414,344.207,148.414,344.207 C152.331,348.124,152.331,354.476,148.414,358.393 C144.496,362.311,138.144,362.311,134.227,358.393 C133.6,357.766,133.6,357.766,130.778,354.945 C130.778,354.945,101.159,325.325,101.159,325.325 C101.159,325.325,87.8831,338.63,87.8831,338.63 C86.0986,340.418,84.314,342.206,82.5305,343.994 C82.5305,343.994,68.1611,358.393,68.1611,358.393 C64.2429,362.311,57.8911,362.311,53.9739,358.393 C50.0568,354.476,50.0568,348.124,53.9739,344.207 C53.9739,344.207,87.0067,311.173,87.0067,311.173 C87.0067,311.173,57.4222,281.588,57.4222,281.588 C56.3431,280.51,55.265,279.431,54.1859,278.353 C54.1859,278.353,53.9739,278.14,53.9739,278.14 C50.0568,274.223,50.0568,267.871,53.9739,263.954 C56.4455,261.561,58.2679,261.305,61.54,261.194 C61.54,261.194,62.9836,261.199,62.9836,261.199 C67.2141,262.924,65.5821,261.848,68.1611,263.954 C68.1611,263.954,101.194,296.987,101.194,296.987 C112.208,285.979,123.215,274.964,134.227,263.954 C136.698,261.561,138.522,261.305,141.793,261.194 z M141.884,266.209 C140.117,266.22,139.082,266.284,137.773,267.5 C134.696,270.578,132.233,273.041,126.693,278.582 C126.693,278.582,126.692,278.582,126.692,278.582 C115.718,289.56,110.839,294.438,104.739,300.534 C102.781,302.492,99.6059,302.492,97.6473,300.533 C97.6473,300.533,64.7856,267.673,64.7856,267.673 C64.4764,267.419,64.1692,267.162,63.8611,266.907 C63.2396,266.69,62.6253,266.454,62.0141,266.212 C62.0141,266.212,61.6312,266.209,61.6312,266.209 C59.864,266.22,58.8289,266.284,57.5205,267.5 C55.5619,269.459,55.5619,272.635,57.5215,274.595 C57.5215,274.595,57.7345,274.808,57.7345,274.808 C57.7345,274.808,57.7335,274.807,57.7335,274.807 C58.96,276.033,59.9859,277.059,60.9687,278.042 C60.9687,278.042,90.5532,307.626,90.5532,307.626 C92.5128,309.586,92.5128,312.761,90.5532,314.72 C90.5532,314.72,57.5205,347.753,57.5205,347.753 C55.5619,349.712,55.5619,352.888,57.5205,354.846 C59.4791,356.806,62.655,356.806,64.6105,354.85 C64.6105,354.85,78.9799,340.451,78.9799,340.451 C79.6915,339.738,80.2607,339.167,81.5425,337.882 C82.937,336.485,83.5574,335.863,84.3325,335.087 C84.3325,335.087,97.6084,321.783,97.6084,321.783 C99.566,319.82,102.745,319.818,104.706,321.779 C104.706,321.779,134.325,351.398,134.325,351.398 C136.996,354.069,136.018,353.09,137.26,354.333 C137.668,354.741,137.497,354.57,137.773,354.846 C139.732,356.806,142.908,356.806,144.867,354.846 C146.826,352.888,146.826,349.712,144.866,347.753 C144.866,347.753,111.783,314.669,111.783,314.669 C109.826,312.713,109.824,309.54,111.779,307.58 C111.779,307.58,112.635,306.722,112.635,306.722 C112.635,306.722,123.415,295.919,123.415,295.919 C123.415,295.919,123.918,295.416,123.918,295.416 C123.918,295.416,143.584,275.876,143.584,275.876 C144.225,275.235,144.225,275.235,144.867,274.594 C146.815,272.394,146.774,269.835,144.942,267.593 C144.666,267.365,144.39,267.135,144.114,266.907 C143.493,266.69,142.878,266.454,142.267,266.212 C142.267,266.212,141.884,266.209,141.884,266.209 z"/>
      <path id="Path 267" style="fill:#088357;fill-opacity:1;fill-rule:nonzero;opacity:1;stroke:none;" d="M171.415,261.016 C176.955,261.016,181.447,265.507,181.447,271.047 C181.447,271.047,181.447,351.3,181.447,351.3 C181.447,356.841,176.955,361.331,171.415,361.331 C165.874,361.331,161.384,356.841,161.384,351.3 C161.384,351.3,161.384,271.047,161.384,271.047 C161.384,265.507,165.874,261.016,171.415,261.016 z M171.415,266.031 C168.645,266.031,166.399,268.278,166.399,271.047 C166.399,271.047,166.399,351.3,166.399,351.3 C166.399,354.07,168.645,356.315,171.415,356.315 C174.186,356.315,176.431,354.07,176.431,351.3 C176.431,351.3,176.431,271.047,176.431,271.047 C176.431,268.278,174.186,266.031,171.415,266.031 z"/>
      <path id="Path 268" style="fill:#088357;fill-opacity:1;fill-rule:nonzero;opacity:1;stroke:none;" d="M282.235,261.194 C282.235,261.194,283.679,261.199,283.679,261.199 C287.909,262.924,286.277,261.848,288.856,263.954 C292.773,267.871,292.773,274.223,288.856,278.14 C288.229,278.768,288.229,278.768,285.407,281.589 C259.707,307.091,234.207,332.794,208.603,358.393 C204.685,362.311,198.334,362.311,194.416,358.393 C190.498,354.476,190.498,348.124,194.416,344.207 C194.843,343.779,195.271,343.352,195.699,342.924 C221.87,316.448,248.348,290.28,274.669,263.954 C277.14,261.561,278.963,261.305,282.235,261.194 z M282.325,266.209 C280.559,266.22,279.524,266.284,278.216,267.5 C278.055,267.661,278.055,267.661,277.916,267.8 C277.916,267.8,277.916,267.8,277.916,267.8 C277.523,268.193,277.286,268.431,274.767,270.949 C274.767,270.949,201.411,344.305,201.411,344.305 C198.894,346.824,198.655,347.061,198.263,347.453 C198.263,347.453,198.263,347.453,198.263,347.453 C198.124,347.592,198.124,347.592,197.963,347.753 C196.004,349.712,196.004,352.888,197.963,354.846 C199.921,356.806,203.097,356.806,205.057,354.846 C205.218,354.686,205.218,354.686,205.357,354.546 C206.406,353.497,207.456,352.447,208.504,351.398 C208.504,351.398,281.86,278.042,281.86,278.042 C281.86,278.042,282.703,277.2,282.703,277.2 C282.703,277.2,285.309,274.594,285.309,274.594 C287.257,272.394,287.216,269.835,285.384,267.593 C285.107,267.365,284.833,267.135,284.556,266.907 C283.935,266.69,283.32,266.454,282.709,266.212 C282.709,266.212,282.325,266.209,282.325,266.209 z"/>
      <path id="Path 269" style="fill:#8cc63f;fill-opacity:1;fill-rule:nonzero;opacity:1;stroke:none;" d="M171.415,261.016 C176.955,261.016,181.447,265.507,181.447,271.047 C181.447,271.047,181.447,351.3,181.447,351.3 C181.447,356.841,176.955,361.331,171.415,361.331 C165.874,361.331,161.384,356.841,161.384,351.3 C161.384,351.3,161.384,271.047,161.384,271.047 C161.384,265.507,165.874,261.016,171.415,261.016 z M171.415,266.031 C168.645,266.031,166.399,268.278,166.399,271.047 C166.399,271.047,166.399,351.3,166.399,351.3 C166.399,354.07,168.645,356.315,171.415,356.315 C174.186,356.315,176.431,354.07,176.431,351.3 C176.431,351.3,176.431,271.047,176.431,271.047 C176.431,268.278,174.186,266.031,171.415,266.031 z"/>
      <path id="Path 270" style="fill:#3da8f4;fill-opacity:1;fill-rule:nonzero;opacity:1;stroke:none;" d="M282.235,261.194 C282.235,261.194,283.679,261.199,283.679,261.199 C287.909,262.924,286.277,261.848,288.856,263.954 C292.773,267.871,292.773,274.223,288.856,278.14 C288.229,278.768,288.229,278.768,285.407,281.589 C259.707,307.091,234.207,332.794,208.603,358.393 C204.685,362.311,198.334,362.311,194.416,358.393 C190.498,354.476,190.498,348.124,194.416,344.207 C194.843,343.779,195.271,343.352,195.699,342.924 C221.87,316.448,248.348,290.28,274.669,263.954 C277.14,261.561,278.963,261.305,282.235,261.194 z M282.325,266.209 C280.559,266.22,279.524,266.284,278.216,267.5 C278.055,267.661,278.055,267.661,277.916,267.8 C277.916,267.8,277.916,267.8,277.916,267.8 C277.523,268.193,277.286,268.431,274.767,270.949 C274.767,270.949,201.411,344.305,201.411,344.305 C198.894,346.824,198.655,347.061,198.263,347.453 C198.263,347.453,198.263,347.453,198.263,347.453 C198.124,347.592,198.124,347.592,197.963,347.753 C196.004,349.712,196.004,352.888,197.963,354.846 C199.921,356.806,203.097,356.806,205.057,354.846 C205.218,354.686,205.218,354.686,205.357,354.546 C206.406,353.497,207.456,352.447,208.504,351.398 C208.504,351.398,281.86,278.042,281.86,278.042 C281.86,278.042,282.703,277.2,282.703,277.2 C282.703,277.2,285.309,274.594,285.309,274.594 C287.257,272.394,287.216,269.835,285.384,267.593 C285.107,267.365,284.833,267.135,284.556,266.907 C283.935,266.69,283.32,266.454,282.709,266.212 C282.709,266.212,282.325,266.209,282.325,266.209 z"/>
      <path id="Path 271" style="fill:#ff931d;fill-opacity:1;fill-rule:nonzero;opacity:1;stroke:none;" d="M351.983,150.669 C357.524,150.669,362.015,155.159,362.015,160.7 C362.015,160.7,362.015,230.921,362.015,230.921 C362.015,233.581,360.958,236.133,359.076,238.014 C359.076,238.014,349.045,248.046,349.045,248.046 C347.164,249.928,344.613,250.984,341.952,250.984 C341.952,250.984,311.858,250.984,311.858,250.984 C306.317,250.984,301.826,246.493,301.826,240.953 C301.826,235.412,306.317,230.921,311.858,230.921 C311.858,230.921,337.796,230.921,337.796,230.921 C337.796,230.921,341.952,226.766,341.952,226.766 C341.952,226.766,341.952,160.7,341.952,160.7 C341.952,155.159,346.443,150.669,351.983,150.669 z"/>
      <path id="Path 272" style="fill:#fbed21;fill-opacity:1;fill-rule:nonzero;opacity:1;stroke:none;" d="M450.932,230.921 C456.472,230.921,460.964,235.412,460.964,240.953 C460.964,246.493,456.472,250.984,450.932,250.984 C450.932,250.984,382.079,250.984,382.079,250.984 C376.538,250.984,372.046,246.493,372.046,240.953 C372.046,235.412,376.538,230.921,382.079,230.921 C382.079,230.921,450.932,230.921,450.932,230.921 z"/>
      <path id="Path 273" style="fill:#fbed21;fill-opacity:1;fill-rule:nonzero;opacity:1;stroke:none;" d="M450.932,266.031 C456.472,266.031,460.964,270.523,460.964,276.063 C460.964,281.604,456.472,286.094,450.932,286.094 C450.932,286.094,382.079,286.094,382.079,286.094 C376.538,286.094,372.046,281.604,372.046,276.063 C372.046,270.523,376.538,266.031,382.079,266.031 C382.079,266.031,450.932,266.031,450.932,266.031 z M450.932,271.047 C450.932,271.047,382.079,271.047,382.079,271.047 C379.308,271.047,377.063,273.293,377.063,276.063 C377.063,278.833,379.308,281.079,382.079,281.079 C382.079,281.079,450.932,281.079,450.932,281.079 C453.702,281.079,455.948,278.833,455.948,276.063 C455.948,273.293,453.702,271.047,450.932,271.047 z"/>
      <path id="Path 274" style="fill:#fbed21;fill-opacity:1;fill-rule:nonzero;opacity:1;stroke:none;" d="M450.932,195.81 C456.472,195.81,460.964,200.302,460.964,205.842 C460.964,211.383,456.472,215.873,450.932,215.873 C450.932,215.873,382.079,215.873,382.079,215.873 C376.538,215.873,372.046,211.383,372.046,205.842 C372.046,200.302,376.538,195.81,382.079,195.81 C382.079,195.81,450.932,195.81,450.932,195.81 z"/>
      <path id="Path 275" style="fill:#fbed21;fill-opacity:1;fill-rule:nonzero;opacity:1;stroke:none;" d="M451.404,150.846 C451.404,150.846,452.848,150.852,452.848,150.852 C457.078,152.577,455.448,151.5,458.026,153.606 C461.943,157.524,461.943,163.876,458.026,167.793 C458.026,167.793,447.994,177.825,447.994,177.825 C446.112,179.706,443.561,180.763,440.901,180.763 C440.901,180.763,382.079,180.763,382.079,180.763 C376.538,180.763,372.046,176.271,372.046,170.731 C372.046,165.192,376.538,160.7,382.079,160.7 C382.079,160.7,436.745,160.7,436.745,160.7 C436.745,160.7,443.838,153.606,443.838,153.606 C446.31,151.214,448.133,150.958,451.404,150.846 z"/>
      <path id="Path 276" style="fill:#fbed21;fill-opacity:1;fill-rule:nonzero;opacity:1;stroke:none;" d="M450.932,301.142 C456.472,301.142,460.964,305.633,460.964,311.174 C460.964,311.174,460.964,341.268,460.964,341.268 C460.964,343.929,459.906,346.481,458.026,348.361 C458.026,348.361,447.994,358.393,447.994,358.393 C446.112,360.275,443.561,361.331,440.901,361.331 C440.901,361.331,382.079,361.331,382.079,361.331 C376.538,361.331,372.046,356.841,372.046,351.3 C372.046,351.3,372.046,311.174,372.046,311.174 C372.046,305.633,376.538,301.142,382.079,301.142 C382.079,301.142,450.932,301.142,450.932,301.142 z M450.932,306.158 C450.932,306.158,382.079,306.158,382.079,306.158 C379.308,306.158,377.063,308.403,377.063,311.174 C377.063,311.174,377.063,351.3,377.063,351.3 C377.063,354.07,379.308,356.315,382.079,356.315 C382.079,356.315,440.901,356.315,440.901,356.315 C442.231,356.315,443.507,355.787,444.448,354.846 C444.448,354.846,454.479,344.815,454.479,344.815 C455.42,343.874,455.948,342.598,455.948,341.268 C455.948,341.268,455.948,311.174,455.948,311.174 C455.948,308.403,453.702,306.158,450.932,306.158 z M440.901,316.19 C443.67,316.19,445.917,318.435,445.917,321.205 C445.917,321.205,445.917,337.113,445.917,337.113 C445.917,338.444,445.387,339.719,444.448,340.66 C444.448,340.66,440.292,344.815,440.292,344.815 C439.351,345.756,438.075,346.284,436.745,346.284 C436.745,346.284,392.11,346.284,392.11,346.284 C389.34,346.284,387.094,344.039,387.094,341.268 C387.094,341.268,387.094,321.205,387.094,321.205 C387.094,318.435,389.34,316.19,392.11,316.19 C392.11,316.19,440.901,316.19,440.901,316.19 z M440.901,321.205 C440.901,321.205,392.11,321.205,392.11,321.205 C392.11,321.205,392.11,341.268,392.11,341.268 C392.11,341.268,436.745,341.268,436.745,341.268 C436.745,341.268,440.901,337.113,440.901,337.113 C440.901,337.113,440.901,321.205,440.901,321.205 z"/>
    </g>
  </g>
</svg>
